<svg width="313" height="83" viewBox="0 0 313 83" fill="none" xmlns="http://www.w3.org/2000/svg">
<g filter="url(#filter0_d_486_24)">
<rect x="4" width="305" height="75" rx="20" fill="#EEEEEE"/>
<path d="M67.14 46.712C69.956 46.008 72.068 43.544 72.068 40.568C72.068 38.552 71.108 36.76 69.604 35.576C69.316 35.352 69.252 34.968 69.476 34.68C70.244 33.656 70.692 32.376 70.692 31C70.692 28.056 68.644 25.624 65.86 24.856C65.316 24.728 64.74 24.632 64.164 24.632H56.356C56.004 24.632 55.716 24.92 55.716 25.272V46.296C55.716 46.648 56.004 46.936 56.356 46.936H65.508C66.084 46.936 66.596 46.84 67.14 46.712ZM59.012 28.504C59.012 28.152 59.3 27.864 59.652 27.864H64.164C65.956 27.864 67.396 29.272 67.396 31C67.396 32.76 65.956 34.168 64.164 34.168H59.652C59.3 34.168 59.012 33.88 59.012 33.528V28.504ZM59.012 38.04C59.012 37.688 59.3 37.4 59.652 37.4H65.508C67.3 37.4 68.74 38.808 68.74 40.568C68.74 42.296 67.3 43.704 65.508 43.704H59.652C59.3 43.704 59.012 43.416 59.012 43.064V38.04ZM80.1605 42.2H88.0645C88.2245 42.2 88.3525 42.296 88.4165 42.424L90.3045 46.776C90.3685 46.904 90.4965 47 90.6565 47H93.4085C93.6965 47 93.8885 46.712 93.7605 46.456L84.5765 25.272C84.4165 24.952 84.0005 24.952 83.8405 25.272L74.4005 46.456C74.2725 46.712 74.4645 47 74.7525 47H77.5045C77.6645 47 77.7925 46.904 77.8565 46.776L79.8085 42.424C79.8725 42.296 80.0005 42.2 80.1605 42.2ZM84.5125 33.464L86.6565 38.36C86.7525 38.616 86.5605 38.904 86.2725 38.904H81.9845C81.6965 38.904 81.5045 38.616 81.6325 38.36L83.8085 33.464C83.9365 33.176 84.3845 33.176 84.5125 33.464ZM101.37 25.24C101.37 24.888 101.082 24.6 100.698 24.6H98.7143C98.3623 24.6 98.0743 24.888 98.0743 25.24V46.328C98.0743 46.68 98.3623 47 98.7143 47H100.698C101.082 47 101.37 46.68 101.37 46.328V25.24ZM108.691 47C109.043 47 109.491 46.744 109.683 46.456L114.419 39.32C114.611 39.032 114.931 39.032 115.123 39.32L119.859 46.456C120.051 46.744 120.499 47 120.883 47H123.539C123.891 47 124.019 46.744 123.827 46.456L117.107 36.312C116.915 36.024 116.915 35.544 117.107 35.224L123.795 25.144C124.019 24.824 123.859 24.6 123.507 24.6H120.851C120.499 24.6 120.051 24.856 119.827 25.144L115.123 32.248C114.931 32.536 114.611 32.536 114.419 32.248L109.715 25.144C109.523 24.824 109.075 24.6 108.691 24.6H106.035C105.683 24.6 105.555 24.856 105.747 25.144L112.435 35.224C112.627 35.544 112.627 36.024 112.435 36.312L105.715 46.456C105.523 46.744 105.651 47 106.035 47H108.691ZM126.471 46.36C126.471 46.712 126.759 47 127.111 47H138.343C138.695 47 138.983 46.712 138.983 46.36V44.568C138.983 44.216 138.695 43.928 138.343 43.928H130.407C130.055 43.928 129.766 43.64 129.766 43.256V39.544C129.766 39.192 130.055 38.904 130.407 38.904H134.599C134.983 38.904 135.271 38.616 135.271 38.264V36.248C135.271 35.896 134.983 35.608 134.599 35.608H130.407C130.055 35.608 129.766 35.32 129.766 34.936V28.312C129.766 27.928 130.055 27.64 130.407 27.64H138.343C138.695 27.64 138.983 27.352 138.983 27V25.24C138.983 24.888 138.695 24.6 138.343 24.6H127.111C126.759 24.6 126.471 24.888 126.471 25.24V46.36ZM156.911 42.2H164.815C164.975 42.2 165.103 42.296 165.167 42.424L167.055 46.776C167.119 46.904 167.247 47 167.407 47H170.159C170.447 47 170.639 46.712 170.511 46.456L161.327 25.272C161.167 24.952 160.751 24.952 160.591 25.272L151.151 46.456C151.023 46.712 151.215 47 151.503 47H154.255C154.415 47 154.543 46.904 154.607 46.776L156.559 42.424C156.623 42.296 156.751 42.2 156.911 42.2ZM161.263 33.464L163.407 38.36C163.503 38.616 163.311 38.904 163.023 38.904H158.735C158.447 38.904 158.255 38.616 158.383 38.36L160.559 33.464C160.687 33.176 161.135 33.176 161.263 33.464ZM179.494 47C180.23 47.128 180.966 47.224 181.734 47.224C182.502 47.224 183.238 47.128 183.974 47C189.222 45.944 193.19 41.336 193.19 35.768V34.712C193.19 34.392 192.902 34.136 192.582 34.136H182.342C181.99 34.136 181.734 34.392 181.734 34.712V36.856C181.734 37.176 181.99 37.432 182.342 37.432H188.934C189.35 37.432 189.638 37.816 189.51 38.2C188.39 41.752 184.902 44.28 180.934 43.896C176.966 43.512 173.798 40.152 173.606 36.184C173.382 31.512 177.126 27.64 181.734 27.64C183.718 27.64 185.574 28.344 187.046 29.624C187.27 29.816 187.622 29.784 187.846 29.592L189.35 28.056C189.574 27.832 189.574 27.448 189.318 27.224C187.814 25.88 186.022 24.984 184.102 24.6C183.334 24.44 182.534 24.344 181.734 24.344C180.934 24.344 180.134 24.44 179.366 24.6C174.182 25.688 170.31 30.296 170.31 35.8C170.278 41.336 174.246 45.944 179.494 47ZM203.556 47C204.292 47.128 205.028 47.224 205.796 47.224C206.564 47.224 207.3 47.128 208.036 47C213.284 45.944 217.252 41.336 217.252 35.768C217.252 30.296 213.348 25.688 208.164 24.6C207.396 24.44 206.628 24.344 205.796 24.344C204.996 24.344 204.196 24.44 203.428 24.6C198.244 25.688 194.372 30.296 194.372 35.768C194.372 41.336 198.308 45.944 203.556 47ZM205.796 27.64C210.276 27.64 213.924 31.288 213.924 35.768C213.924 40.28 210.276 43.928 205.796 43.928C201.316 43.928 197.668 40.28 197.668 35.768C197.668 31.288 201.316 27.64 205.796 27.64ZM223.652 37.432H225.476C225.732 37.432 225.956 37.56 226.084 37.784L231.204 46.68C231.332 46.872 231.556 47 231.78 47H234.052C234.564 47 234.884 46.456 234.628 46.008L229.86 37.688C229.668 37.368 229.796 36.92 230.148 36.76C232.324 35.704 233.86 33.496 233.86 30.904C233.86 28.376 232.42 26.2 230.34 25.112C229.636 24.76 228.836 24.6 228.036 24.6H220.324C219.972 24.6 219.684 24.888 219.684 25.272V46.328C219.684 46.68 219.972 47 220.324 47H222.308C222.66 47 222.98 46.68 222.98 46.328V38.104C222.98 37.72 223.268 37.432 223.652 37.432ZM230.532 31.224C230.372 32.888 228.836 34.136 227.172 34.136H223.364C223.14 34.136 222.98 33.944 222.98 33.752V28.312C222.98 27.96 223.268 27.64 223.652 27.64H227.3C229.188 27.64 230.724 29.272 230.532 31.224ZM242.817 42.2H250.721C250.881 42.2 251.009 42.296 251.073 42.424L252.961 46.776C253.025 46.904 253.153 47 253.313 47H256.065C256.353 47 256.545 46.712 256.417 46.456L247.233 25.272C247.073 24.952 246.657 24.952 246.497 25.272L237.057 46.456C236.929 46.712 237.121 47 237.409 47H240.161C240.321 47 240.449 46.904 240.513 46.776L242.465 42.424C242.529 42.296 242.657 42.2 242.817 42.2ZM247.169 33.464L249.313 38.36C249.409 38.616 249.217 38.904 248.929 38.904H244.641C244.353 38.904 244.161 38.616 244.289 38.36L246.465 33.464C246.593 33.176 247.041 33.176 247.169 33.464Z" fill="#E98282"/>
</g>
<defs>
<filter id="filter0_d_486_24" x="0" y="0" width="313" height="83" filterUnits="userSpaceOnUse" color-interpolation-filters="sRGB">
<feFlood flood-opacity="0" result="BackgroundImageFix"/>
<feColorMatrix in="SourceAlpha" type="matrix" values="0 0 0 0 0 0 0 0 0 0 0 0 0 0 0 0 0 0 127 0" result="hardAlpha"/>
<feOffset dy="4"/>
<feGaussianBlur stdDeviation="2"/>
<feComposite in2="hardAlpha" operator="out"/>
<feColorMatrix type="matrix" values="0 0 0 0 0 0 0 0 0 0 0 0 0 0 0 0 0 0 0.25 0"/>
<feBlend mode="normal" in2="BackgroundImageFix" result="effect1_dropShadow_486_24"/>
<feBlend mode="normal" in="SourceGraphic" in2="effect1_dropShadow_486_24" result="shape"/>
</filter>
</defs>
</svg>
