<svg width="313" height="83" viewBox="0 0 313 83" fill="none" xmlns="http://www.w3.org/2000/svg">
<g filter="url(#filter0_d_343_326)">
<rect x="4" width="305" height="75" rx="20" fill="#EEEEEE"/>
<path d="M89.964 47C90.7 47.128 91.436 47.224 92.204 47.224C92.94 47.224 93.676 47.128 94.38 47C95.98 46.68 97.484 46.04 98.828 45.112C99.148 44.888 99.212 44.472 98.956 44.152L97.708 42.616C97.484 42.328 97.132 42.264 96.844 42.456C95.5 43.416 93.9 43.896 92.236 43.928C88.108 43.928 84.684 40.984 84.14 36.888C83.468 31.928 87.372 27.64 92.204 27.64C94.156 27.64 96.012 28.344 97.484 29.592C97.74 29.816 98.124 29.784 98.348 29.528L99.756 28.12C100.044 27.832 100.012 27.384 99.724 27.16C98.22 25.848 96.46 24.984 94.572 24.6C93.804 24.44 93.004 24.344 92.204 24.344C91.404 24.344 90.604 24.44 89.836 24.6C84.652 25.688 80.78 30.296 80.78 35.768C80.78 41.336 84.716 45.944 89.964 47ZM105.762 24.056C105.762 23.704 105.474 23.384 105.09 23.384H103.106C102.754 23.384 102.466 23.704 102.466 24.056V46.296C102.466 46.648 102.754 46.936 103.106 46.936H105.09C105.474 46.936 105.762 46.648 105.762 46.296V24.056ZM112.802 32.536C112.802 32.184 112.514 31.896 112.161 31.896H110.146C109.794 31.896 109.506 32.184 109.506 32.536V46.296C109.506 46.648 109.794 46.936 110.146 46.936H112.161C112.514 46.936 112.802 46.648 112.802 46.296V32.536ZM113.314 28.088C113.314 26.904 112.354 25.976 111.138 25.976C109.954 25.976 108.993 26.936 108.993 28.088C108.993 29.272 109.954 30.232 111.138 30.232C112.354 30.232 113.314 29.272 113.314 28.088ZM121.67 31.768C118.534 32.376 116.134 35.032 115.686 38.2C115.014 42.904 118.662 46.936 123.27 46.936C124.87 46.936 126.374 46.424 127.59 45.592V53.432C127.59 53.912 127.974 54.264 128.454 54.264H130.054C130.534 54.264 130.918 53.912 130.918 53.432V32.536C130.918 32.056 130.534 31.704 130.054 31.704H129.606C128.486 31.704 127.59 32.6 127.59 33.688C126.886 32.696 124.678 31.224 121.67 31.768ZM123.238 43.64C120.87 43.64 118.918 41.688 118.918 39.288C118.918 36.92 120.87 34.968 123.238 34.968C125.638 34.968 127.59 36.92 127.59 39.288C127.59 41.688 125.638 43.64 123.238 43.64ZM140.133 47.096C141.637 47.288 143.877 46.392 144.229 45.496C144.229 46.296 144.869 46.936 145.669 46.936H146.725C147.173 46.936 147.525 46.584 147.525 46.168V32.792C147.525 32.376 147.173 32.024 146.725 32.024H144.997C144.581 32.024 144.229 32.376 144.229 32.792V40.408C144.229 42.104 142.949 43.64 141.253 43.832C139.301 44.024 137.637 42.456 137.637 40.536V32.664C137.637 32.248 137.285 31.896 136.837 31.896H135.109C134.661 31.896 134.341 32.248 134.341 32.664V40.28C134.309 43.672 136.773 46.648 140.133 47.096ZM153.901 46.104C155.053 46.712 156.301 47.032 157.581 47.032C158.317 47.032 159.053 46.936 159.757 46.712C161.485 46.232 162.957 45.144 163.949 43.672C164.173 43.352 164.045 42.904 163.725 42.712L161.965 41.752C161.677 41.592 161.325 41.688 161.101 41.944C160.557 42.712 159.757 43.288 158.829 43.544C157.709 43.896 156.525 43.768 155.501 43.192C155.149 43 154.829 42.776 154.541 42.488C154.381 42.328 154.445 42.008 154.669 41.944L164.749 39C165.069 38.904 165.293 38.584 165.197 38.232C165.165 37.976 165.069 37.624 164.973 37.208C164.749 36.504 164.429 35.832 164.045 35.192C163.341 34.136 162.413 33.24 161.261 32.632C159.469 31.64 157.389 31.416 155.437 31.992C153.453 32.568 151.853 33.88 150.861 35.704C149.869 37.496 149.645 39.576 150.221 41.528C150.221 41.528 150.893 44.44 153.901 46.104ZM153.773 37.272C154.317 36.248 155.245 35.512 156.365 35.192C156.781 35.064 157.197 35 157.613 35C158.317 35 159.021 35.192 159.693 35.544C160.077 35.768 160.461 36.024 160.749 36.376C160.877 36.504 160.813 36.696 160.653 36.76L153.741 38.776C153.517 38.84 153.293 38.616 153.325 38.36C153.421 38.008 153.581 37.624 153.773 37.272ZM182.975 47.416C184.575 47.416 186.815 46.392 187.583 45.144C187.583 46.136 188.383 46.936 189.375 46.936H190.175C190.559 46.936 190.911 46.616 190.911 46.2V38.168C190.911 34.584 188.031 31.704 184.479 31.704C183.135 31.704 181.567 31.768 179.711 32.728C179.295 32.952 179.135 33.528 179.423 33.944L180.286 35.288C180.511 35.672 180.991 35.8 181.407 35.576C182.495 35.064 183.423 35 184.447 35C186.079 35 187.423 36.28 187.551 37.912C186.431 37.496 185.087 37.272 183.775 37.272C179.839 37.272 177.279 39.32 177.279 42.552C177.279 45.4 179.615 47.416 182.975 47.416ZM182.047 40.792C182.623 40.632 183.199 40.568 183.775 40.568C185.215 40.568 186.623 40.984 187.295 41.368C186.527 43.352 184.447 44.12 182.975 44.12C182.559 44.12 180.575 44.024 180.575 42.552C180.575 41.912 180.735 41.208 182.047 40.792ZM199.42 31.768C196.284 32.376 193.884 35.032 193.436 38.2C192.764 42.904 196.412 46.936 201.02 46.936C202.62 46.936 204.124 46.424 205.34 45.592V53.432C205.34 53.912 205.724 54.264 206.204 54.264H207.804C208.284 54.264 208.668 53.912 208.668 53.432V32.536C208.668 32.056 208.284 31.704 207.804 31.704H207.356C206.236 31.704 205.34 32.6 205.34 33.688C204.636 32.696 202.428 31.224 199.42 31.768ZM200.988 43.64C198.62 43.64 196.668 41.688 196.668 39.288C196.668 36.92 198.62 34.968 200.988 34.968C203.388 34.968 205.34 36.92 205.34 39.288C205.34 41.688 203.388 43.64 200.988 43.64ZM217.883 47.096C219.387 47.288 221.627 46.392 221.979 45.496C221.979 46.296 222.619 46.936 223.419 46.936H224.475C224.923 46.936 225.275 46.584 225.275 46.168V32.792C225.275 32.376 224.923 32.024 224.475 32.024H222.747C222.331 32.024 221.979 32.376 221.979 32.792V40.408C221.979 42.104 220.699 43.64 219.003 43.832C217.051 44.024 215.387 42.456 215.387 40.536V32.664C215.387 32.248 215.035 31.896 214.587 31.896H212.859C212.411 31.896 212.091 32.248 212.091 32.664V40.28C212.059 43.672 214.523 46.648 217.883 47.096ZM231.395 32.536C231.395 32.184 231.107 31.896 230.755 31.896H228.739C228.387 31.896 228.099 32.184 228.099 32.536V46.296C228.099 46.648 228.387 46.936 228.739 46.936H230.755C231.107 46.936 231.395 46.648 231.395 46.296V32.536ZM231.907 28.088C231.907 26.904 230.947 25.976 229.731 25.976C228.547 25.976 227.587 26.936 227.587 28.088C227.587 29.272 228.547 30.232 229.731 30.232C230.947 30.232 231.907 29.272 231.907 28.088Z" fill="#1700A1"/>
</g>
<defs>
<filter id="filter0_d_343_326" x="0" y="0" width="313" height="83" filterUnits="userSpaceOnUse" color-interpolation-filters="sRGB">
<feFlood flood-opacity="0" result="BackgroundImageFix"/>
<feColorMatrix in="SourceAlpha" type="matrix" values="0 0 0 0 0 0 0 0 0 0 0 0 0 0 0 0 0 0 127 0" result="hardAlpha"/>
<feOffset dy="4"/>
<feGaussianBlur stdDeviation="2"/>
<feComposite in2="hardAlpha" operator="out"/>
<feColorMatrix type="matrix" values="0 0 0 0 0 0 0 0 0 0 0 0 0 0 0 0 0 0 0.25 0"/>
<feBlend mode="normal" in2="BackgroundImageFix" result="effect1_dropShadow_343_326"/>
<feBlend mode="normal" in="SourceGraphic" in2="effect1_dropShadow_343_326" result="shape"/>
</filter>
</defs>
</svg>
