<svg width="258" height="252" viewBox="0 0 258 252" fill="none" xmlns="http://www.w3.org/2000/svg">
<path d="M187.755 247.106H18.9536V33.1204H187.755V247.106Z" fill="#4200FF"/>
<path d="M257.2 0V33.1201V247.106H187.755V33.1201H246.514V0H257.2Z" fill="#080065"/>
<path d="M246.518 33.1201H103.355V0H246.518V33.1201Z" fill="#4200FF"/>
<path d="M46.1209 41.0217C51.2338 41.0217 55.3759 45.1672 55.3759 50.2768C55.3759 55.3898 51.2305 59.5319 46.1209 59.5319C41.0112 59.5319 36.8658 55.3864 36.8658 50.2768C36.8658 45.1672 41.0079 41.0217 46.1209 41.0217Z" fill="#080065"/>
<path d="M81.3775 41.0217C86.4905 41.0217 90.6326 45.1672 90.6326 50.2768C90.6326 55.3898 86.4871 59.5319 81.3775 59.5319C76.2679 59.5319 72.1224 55.3864 72.1224 50.2768C72.1191 45.1672 76.2645 41.0217 81.3775 41.0217Z" fill="#080065"/>
<path d="M130.196 41.0217C135.309 41.0217 139.451 45.1672 139.451 50.2768C139.451 55.3898 135.306 59.5319 130.196 59.5319C125.086 59.5319 120.941 55.3864 120.941 50.2768C120.937 45.1672 125.083 41.0217 130.196 41.0217Z" fill="#080065"/>
<path d="M165.453 41.0217C170.566 41.0217 174.708 45.1672 174.708 50.2768C174.708 55.3898 170.562 59.5319 165.453 59.5319C160.343 59.5319 156.197 55.3864 156.197 50.2768C156.194 45.1672 160.34 41.0217 165.453 41.0217Z" fill="#080065"/>
<path d="M246.518 247.106H257.201V252.269H246.518V247.106Z" fill="#080065"/>
<path d="M180.516 247.106H191.199V252.269H180.516V247.106Z" fill="#080065"/>
<path d="M18.9536 247.106H29.6364V252.269H18.9536V247.106Z" fill="#080065"/>
<path d="M93.4746 247.106H104.157V252.269H93.4746V247.106Z" fill="#080065"/>
<path d="M170.676 165.331H30.4057C28.1885 165.331 26.3745 163.517 26.3745 161.3V74.877C26.3745 72.6598 28.1885 70.8457 30.4057 70.8457H170.676C172.894 70.8457 174.708 72.6598 174.708 74.877V161.3C174.708 163.517 172.894 165.331 170.676 165.331Z" fill="#809FFF"/>
<path d="M189.23 186.271H18.9536V180.65H189.23V186.271Z" fill="#080065"/>
<path d="M98.816 28.2587V29.1691C98.816 31.3426 97.0389 33.1198 94.8654 33.1198H44.9585C42.785 33.1198 41.0079 31.3426 41.0079 29.1691V28.2587C41.0079 26.0852 42.785 24.3081 44.9585 24.3081H94.862C97.0355 24.3048 98.816 26.0852 98.816 28.2587Z" fill="#080065"/>
<path d="M180.513 28.2587V29.1691C180.513 31.3426 178.736 33.1198 176.562 33.1198H126.652C124.478 33.1198 122.701 31.3426 122.701 29.1691V28.2587C122.701 26.0852 124.478 24.3081 126.652 24.3081H176.559C178.732 24.3048 180.513 26.0852 180.513 28.2587Z" fill="#080065"/>
<path d="M187.756 88.483C187.756 90.5524 186.079 92.2287 184.01 92.2287H165.856C163.786 92.2287 162.11 90.5524 162.11 88.483C162.11 86.4136 163.786 84.7373 165.856 84.7373H184.01C186.079 84.734 187.756 86.4136 187.756 88.483Z" fill="#4200FF"/>
<path d="M170.152 88.483C170.152 90.5524 168.476 92.2287 166.407 92.2287H3.7457C1.67633 92.2287 0 90.5524 0 88.483C0 86.4136 1.67633 84.7373 3.7457 84.7373H166.407C168.476 84.734 170.152 86.4136 170.152 88.483Z" fill="#080065"/>
</svg>
