<svg width="682" height="707" viewBox="0 0 682 707" fill="none" xmlns="http://www.w3.org/2000/svg">
<g clip-path="url(#clip0_328_4)">
<path d="M146.445 95.2005C133.92 102.518 126.132 115.852 125.912 130.356L118.749 601.439C118.384 625.433 138.409 644.722 162.373 643.458L550.624 622.985C582.129 621.323 600.301 586.471 583.625 559.689L276.243 66.0156C264.384 46.9695 239.523 40.8179 220.151 52.1364L146.445 95.2005Z" fill="#080065"/>
<path d="M89.1266 270.448C85.5635 251.118 96.928 232.154 115.654 226.181L439.739 122.809C459.192 116.604 480.139 126.438 487.793 145.367L620.973 474.771C629.622 496.163 617.928 520.349 595.791 526.856L201.551 642.738C179.335 649.268 156.35 635.135 152.152 612.362L89.1266 270.448Z" fill="url(#paint0_linear_328_4)"/>
<path d="M309.49 317.172L284.477 318.227L289.104 285.59L290.897 272.969L301.133 272.299L301.962 276.752L309.49 317.172Z" fill="#F6F4E7"/>
<path d="M301.962 276.752L289.104 285.59L290.897 272.969L301.133 272.299L301.962 276.752Z" fill="black"/>
<path d="M272.448 249.701L197.112 110.845L276.631 90.604L313.74 221.691L272.448 249.701Z" fill="#809FFF"/>
<path d="M296.747 273.576C308.227 273.576 317.533 264.27 317.533 252.79C317.533 241.31 308.227 232.004 296.747 232.004C285.267 232.004 275.961 241.31 275.961 252.79C275.961 264.27 285.267 273.576 296.747 273.576Z" fill="#F6F4E7"/>
<path d="M331.09 249.161C331.089 250.567 330.78 251.956 330.186 253.23C329.591 254.505 328.725 255.633 327.647 256.537C326.57 257.441 325.308 258.099 323.95 258.463C322.592 258.828 321.17 258.891 319.785 258.648C318.4 258.405 317.085 257.862 315.932 257.056C314.779 256.251 313.817 255.203 313.112 253.987C312.407 252.77 311.976 251.414 311.851 250.013C311.726 248.613 311.908 247.201 312.386 245.879C309.445 246.386 306.425 246.176 303.582 245.267C300.74 244.357 298.158 242.775 296.058 240.655C294.838 243.038 293.086 245.108 290.937 246.705C288.789 248.302 286.301 249.383 283.667 249.865C284.116 251.023 284.345 252.256 284.342 253.498C284.346 255.239 283.9 256.952 283.048 258.471C282.197 259.989 280.967 261.262 279.48 262.167C277.992 263.071 276.296 263.577 274.556 263.634C272.816 263.692 271.09 263.3 269.546 262.495C268.002 261.691 266.691 260.502 265.741 259.043C264.791 257.584 264.233 255.904 264.122 254.167C264.01 252.429 264.349 250.692 265.105 249.124C265.861 247.555 267.009 246.209 268.438 245.214C265.088 242.036 263.137 237.657 263.015 233.04C262.893 228.423 264.61 223.947 267.788 220.597C270.966 217.246 275.345 215.295 279.962 215.173C284.578 215.051 289.054 216.768 292.405 219.946C293.509 217.54 295.116 215.399 297.118 213.667C299.12 211.935 301.471 210.652 304.011 209.906C306.55 209.16 309.221 208.968 311.842 209.342C314.462 209.717 316.972 210.649 319.202 212.076C321.431 213.503 323.329 215.391 324.766 217.614C326.204 219.838 327.147 222.343 327.534 224.962C327.92 227.581 327.74 230.252 327.006 232.796C326.272 235.339 325 237.695 323.278 239.705C325.475 240.129 327.457 241.305 328.882 243.03C330.307 244.755 331.088 246.923 331.09 249.161Z" fill="#080065"/>
<path d="M237.493 185.406L297.114 163.135" stroke="black" stroke-width="1.92774" stroke-miterlimit="10"/>
<path d="M246.028 201.208L301.933 180.003" stroke="black" stroke-width="1.92774" stroke-miterlimit="10"/>
<path d="M554.525 346.994L361.452 376.04V619.77L212.052 602.902L201.449 619.77V310.849H267.233L267.956 297.836L285.306 300.728L286.241 310.849H304.829L303.62 304.102L323.861 296.391L326.974 310.849H331.225L552.781 289.162L554.525 346.994Z" fill="#A180FF"/>
<path d="M394.079 528.014C391.973 546.992 379.958 561.234 367.245 559.822C354.531 558.41 345.934 541.879 348.04 522.9C350.112 504.245 361.756 490.167 374.228 491.035L398.079 347.138L402.638 347.89L378.753 492.057C389.284 496.018 395.963 511.035 394.079 528.014Z" fill="#080065"/>
<path d="M440.489 416.875L381.211 445.309L406.272 426.031L381.211 437.116L406.605 416.234L380.729 427.477L403.829 409.366L380.05 419.125L404.927 401.655L394.224 392.296L419.467 397.559L428.774 393.24L440.489 416.875Z" fill="#F6F4E7"/>
<path d="M404.971 380.095L537.354 294.223C544.003 289.91 552.092 288.416 559.843 290.067C567.594 291.719 574.371 296.382 578.683 303.03C582.996 309.679 584.491 317.768 582.839 325.519C581.187 333.269 576.524 340.046 569.876 344.359L437.492 430.231L404.971 380.095Z" fill="#A180FF"/>
<path d="M256.159 607.969L229.878 581.688C201.314 553.124 185.266 514.382 185.266 473.985C185.266 433.588 201.314 394.846 229.878 366.281L471.566 607.969C443.002 636.534 404.26 652.582 363.863 652.582C323.466 652.582 284.724 636.534 256.159 607.969Z" fill="#809FFF"/>
<path d="M257.672 620.044L303.171 630.685L255.72 601.239L288.709 602.28L233.912 586.347L223.247 570.275C221.753 572.309 220.251 574.339 218.741 576.366C212.476 584.742 206.119 593.032 199.758 601.331L220.187 621.977L274.458 682.995L250.361 638.011L293.547 669.568L256.592 628.285L303.085 654.469L257.672 620.044Z" fill="#F6F4E7"/>
<path d="M264.713 314.955C257.2 304.28 239.522 295.947 231.069 293.499C220.857 290.511 210.134 289.605 200.659 294.853C191.526 299.918 183.545 306.815 176.143 314.131C159.911 330.126 144.581 346.854 128.195 362.705C117.11 373.418 105.968 384.026 94.8595 394.696C91.7703 397.665 41.808 444.933 42.1453 445.299L199.801 625.003L230.823 577.629L160.109 441.723C157.477 436.672 195.873 407.207 200.071 403.318C217.658 387.019 234.632 370.091 250.992 352.536C259.701 343.22 274.188 328.401 264.713 314.955Z" fill="#A180FF"/>
<path d="M229.435 579.87L207.526 611.562L233.85 586.473L229.435 579.87Z" fill="#080065"/>
<path d="M426.031 366.271L540.077 292.472L400.489 370.127L426.031 366.271Z" fill="#080065"/>
<path d="M235.185 371.573L362.117 498.437L361.452 415.294C361.452 415.294 281.812 410.971 235.185 371.573Z" fill="#080065"/>
<path d="M353.852 228.46C352.659 223.655 354.951 218.664 359.372 216.437L406.83 192.53C411.905 189.973 418.094 191.872 420.861 196.837L443.244 236.995C446.201 242.299 444.107 248.998 438.656 251.674L379.997 280.477C373.93 283.456 366.661 280.074 365.033 273.514L353.852 228.46Z" stroke="white" stroke-width="1.92774" stroke-miterlimit="10"/>
<path d="M154.255 182.726C147.435 179.712 148.029 169.844 155.162 167.67L174.589 161.749C180.465 159.958 186.715 163.072 188.824 168.84L211.59 231.09C213.914 237.445 210.31 244.43 203.784 246.218L162.655 257.491C156.245 259.248 149.676 255.253 148.287 248.753L143.504 226.379C142.364 221.044 145.106 215.638 150.084 213.407L160.392 208.786C168.325 205.23 169.646 194.521 162.815 189.144L155.98 183.763C155.451 183.346 154.872 182.998 154.255 182.726V182.726Z" stroke="white" stroke-width="1.92774" stroke-miterlimit="10"/>
<path d="M483.623 524.587L491.816 603.625L571.335 601.697L553.021 568.925L507.238 584.347L514.467 521.214L483.623 524.587Z" stroke="white" stroke-width="1.92774" stroke-miterlimit="10"/>
<path d="M446.273 129.641C450.797 129.641 454.466 125.973 454.466 121.448C454.466 116.923 450.797 113.255 446.273 113.255C441.748 113.255 438.08 116.923 438.08 121.448C438.08 125.973 441.748 129.641 446.273 129.641Z" fill="#080065"/>
<path d="M135.424 299.764C138.884 299.764 141.689 296.959 141.689 293.499C141.689 290.039 138.884 287.234 135.424 287.234C131.964 287.234 129.159 290.039 129.159 293.499C129.159 296.959 131.964 299.764 135.424 299.764Z" fill="#080065"/>
<path d="M217.835 280.005C222.36 280.005 226.028 276.337 226.028 271.812C226.028 267.287 222.36 263.619 217.835 263.619C213.31 263.619 209.642 267.287 209.642 271.812C209.642 276.337 213.31 280.005 217.835 280.005Z" fill="#080065"/>
<path d="M90.122 568.684C92.5175 568.684 94.4595 566.742 94.4595 564.347C94.4595 561.951 92.5175 560.01 90.122 560.01C87.7265 560.01 85.7846 561.951 85.7846 564.347C85.7846 566.742 87.7265 568.684 90.122 568.684Z" fill="#080065"/>
<path d="M65.0613 374.946C71.9817 374.946 77.5917 369.336 77.5917 362.416C77.5917 355.495 71.9817 349.885 65.0613 349.885C58.141 349.885 52.531 355.495 52.531 362.416C52.531 369.336 58.141 374.946 65.0613 374.946Z" fill="#080065"/>
<path d="M580.733 444.827C588.718 444.827 595.191 438.354 595.191 430.369C595.191 422.384 588.718 415.911 580.733 415.911C572.748 415.911 566.275 422.384 566.275 430.369C566.275 438.354 572.748 444.827 580.733 444.827Z" fill="#080065"/>
<path d="M517.599 485.791C524.253 485.791 529.648 480.397 529.648 473.743C529.648 467.089 524.253 461.695 517.599 461.695C510.945 461.695 505.551 467.089 505.551 473.743C505.551 480.397 510.945 485.791 517.599 485.791Z" fill="#080065"/>
<path d="M440.489 283.378C443.417 283.378 445.791 281.005 445.791 278.077C445.791 275.149 443.417 272.776 440.489 272.776C437.562 272.776 435.188 275.149 435.188 278.077C435.188 281.005 437.562 283.378 440.489 283.378Z" fill="#080065"/>
<path d="M439.526 456.875C442.986 456.875 445.791 454.07 445.791 450.61C445.791 447.15 442.986 444.345 439.526 444.345C436.065 444.345 433.26 447.15 433.26 450.61C433.26 454.07 436.065 456.875 439.526 456.875Z" fill="#080065"/>
<path d="M459.333 50.0635C456.149 51.6472 455.396 55.8553 457.835 58.4444L513.158 117.195C517.141 121.425 524.046 117.09 521.968 111.664L494.211 39.2034C493.092 36.2823 489.701 34.9601 486.9 36.3531L459.333 50.0635Z" fill="#A180FF"/>
<path d="M56.866 248.748C54.8796 251.467 54.6465 255.09 56.2678 258.041L90.7859 320.876C93.859 326.47 101.717 326.942 105.438 321.756L118.04 304.19C120.133 301.271 120.212 297.364 118.238 294.364L80.235 236.615C76.9072 231.558 69.5542 231.378 65.9834 236.266L56.866 248.748Z" fill="#A180FF"/>
<path d="M618.806 180.191H467.478C461.09 180.191 455.911 185.37 455.911 191.757V238.934C455.911 245.322 461.09 250.501 467.478 250.501H618.806C625.194 250.501 630.372 245.322 630.372 238.934V191.757C630.372 185.37 625.194 180.191 618.806 180.191Z" fill="#080065"/>
<path d="M623.143 175.381H471.815C465.427 175.381 460.249 180.56 460.249 186.948V234.124C460.249 240.512 465.427 245.691 471.815 245.691H623.143C629.531 245.691 634.71 240.512 634.71 234.124V186.948C634.71 180.56 629.531 175.381 623.143 175.381Z" fill="#809FFF"/>
<path d="M123.858 73.7362C123.858 73.7362 11.0845 152.774 66.5072 149.4C121.93 146.027 133.978 113.255 108.436 114.219C82.893 115.183 28.9162 212.534 70.3626 209.16" stroke="url(#paint1_linear_328_4)" stroke-width="1.92774" stroke-miterlimit="10"/>
<path d="M417.484 281.392C415.147 284.143 410.982 284.12 408.435 281.563C405.886 279.005 405.927 274.884 408.217 272.092C420.401 257.24 424.706 238.279 419.723 220.245C411.973 192.211 383.467 170.123 341.505 159.675C320.675 154.485 308.319 144.374 304.776 129.626C300.265 110.831 310.892 85.7701 336.358 55.1094C346.71 42.7476 357.841 31.0627 369.682 20.1257C372.361 17.6517 376.545 17.9213 378.938 20.6729C381.286 23.3733 381.026 27.455 378.401 29.8871C367.012 40.438 356.295 51.6947 346.314 63.5914C336.136 75.8615 328.454 87.2063 323.475 97.327C317.692 109.12 315.658 118.966 317.495 126.59C319.842 136.354 328.728 143.029 344.671 147.005C369.067 153.087 389.187 162.639 404.474 175.405C418.451 187.059 428.089 201.367 432.325 216.775C438.578 239.383 433.029 263.094 417.484 281.392ZM383.173 25.5426L378.879 20.6076L383.173 25.5426Z" fill="#809FFF"/>
</g>
<defs>
<linearGradient id="paint0_linear_328_4" x1="351.875" y1="111.809" x2="351.875" y2="654.951" gradientUnits="userSpaceOnUse">
<stop stop-color="#2400FF"/>
<stop offset="1" stop-color="#C200FF"/>
</linearGradient>
<linearGradient id="paint1_linear_328_4" x1="86.4559" y1="73.7362" x2="86.4559" y2="209.246" gradientUnits="userSpaceOnUse">
<stop stop-color="#809FFF"/>
<stop offset="1" stop-color="#E180FF"/>
</linearGradient>
<clipPath id="clip0_328_4">
<rect width="681.939" height="707" fill="white"/>
</clipPath>
</defs>
</svg>
