<svg width="639" height="570" viewBox="0 0 639 570" fill="none" xmlns="http://www.w3.org/2000/svg">
<path d="M460.613 307.569C459.527 304.64 457.954 301.915 455.959 299.511C452.925 295.834 449.47 292.525 445.666 289.652L444.89 277.304C444.851 276.579 444.579 275.886 444.115 275.326V275.28L436.25 262.567C435.851 261.925 435.214 261.467 434.478 261.294C433.743 261.121 432.968 261.247 432.325 261.644L430.231 262.94C429.59 263.341 429.133 263.979 428.961 264.716C428.788 265.452 428.913 266.227 429.308 266.872L436.762 279.049L437.057 283.61C432.334 280.456 427.211 277.946 421.823 276.149L422.886 245.34C422.891 244.276 422.481 243.252 421.743 242.485C421.005 241.719 419.998 241.27 418.934 241.234C417.87 241.199 416.835 241.58 416.048 242.296C415.261 243.012 414.784 244.007 414.718 245.069L413.695 274.853C412.49 274.858 411.289 274.988 410.111 275.241L411.112 246.341C411.149 245.259 410.754 244.206 410.015 243.415C409.277 242.624 408.253 242.159 407.171 242.122C406.089 242.084 405.037 242.479 404.246 243.218C403.454 243.957 402.989 244.98 402.952 246.062L401.781 280.081L401.688 282.788C401.664 283.01 401.664 283.233 401.688 283.455L401.114 280.802L396.615 259.984C396.316 259.001 395.657 258.167 394.77 257.649C393.882 257.131 392.832 256.967 391.829 257.189C390.826 257.412 389.944 258.004 389.358 258.849C388.773 259.693 388.528 260.728 388.673 261.745L395.847 294.95C395.698 298.268 396.096 301.588 397.026 304.777C398.05 308.361 400.904 311.82 404.589 315.047C408.394 318.28 412.405 321.265 416.595 323.982C417.549 324.641 418.496 325.269 419.395 325.89L419.814 326.177C421.071 327.046 422.317 327.837 423.553 328.55L460.613 307.569Z" fill="#EEEEEE" stroke="#1700A2" stroke-width="1.52024" stroke-miterlimit="10"/>
<path d="M482.47 261.854L483.3 204.566L495.795 250.219L519.918 202.844L515.178 254.097L564.741 226.105L526.41 263.141L586.281 251.08L530.714 283.385L574.646 289.42L530.28 296.742L570.341 320.43L516.388 313.666C516.388 313.666 524.253 270.898 482.47 261.854Z" fill="#E180FF"/>
<path d="M537.078 427.491L536.469 424.212C534.132 411.64 522.046 403.343 509.475 405.68L422.031 421.934C409.459 424.271 401.162 436.357 403.499 448.928L404.109 452.207C406.445 464.779 418.531 473.076 431.103 470.739L518.547 454.485C531.118 452.148 539.415 440.062 537.078 427.491Z" fill="#E180FF"/>
<path d="M455.516 340.342C456.396 326.663 446.019 314.86 432.34 313.98C418.66 313.1 406.858 323.477 405.978 337.156L399.456 438.555C398.576 452.234 408.953 464.037 422.632 464.917C436.312 465.797 448.114 455.42 448.994 441.741L455.516 340.342Z" fill="#E180FF"/>
<path d="M464.682 319.574L404.243 306.264L396.714 340.449L457.153 353.759L464.682 319.574Z" fill="#E180FF"/>
<path d="M447.264 330.97C448.977 330.97 450.366 329.581 450.366 327.868C450.366 326.154 448.977 324.765 447.264 324.765C445.55 324.765 444.161 326.154 444.161 327.868C444.161 329.581 445.55 330.97 447.264 330.97Z" fill="#EEEEEE" stroke="#1700A2" stroke-width="1.52024" stroke-miterlimit="10"/>
<path d="M445.046 315.209C445.046 315.209 406.14 310.556 396.755 340.417L404.278 306.235L445.046 315.209Z" fill="#1700A2"/>
<path d="M96.5846 323.804L42.3911 263.917C42.3911 263.917 109.258 187.409 132.155 210.305L130.945 265.119C130.945 265.119 89.3557 264.763 96.5846 323.804Z" fill="#E180FF"/>
<path d="M102.937 212.384C102.937 212.384 78.334 256.897 98.5159 324.626L97.686 326.844L42.3911 263.917C42.3911 263.917 74.7428 225.376 102.937 212.384Z" fill="#1700A2"/>
<path d="M200.14 444.461L230.389 469.971L293.363 395.324C296.868 392.829 299.979 389.822 302.593 386.405C303.19 385.629 303.772 384.9 304.346 384.078C308.185 378.858 311.071 373.583 312.219 368.565L328.049 347.018C328.637 346.161 328.868 345.11 328.695 344.086C328.521 343.061 327.957 342.145 327.12 341.529C326.283 340.914 325.239 340.648 324.21 340.788C323.181 340.928 322.246 341.463 321.604 342.279L311.032 356.667C310.618 355.853 310.138 355.075 309.597 354.34L325.024 333.351C325.356 332.93 325.6 332.445 325.741 331.928C325.882 331.41 325.917 330.869 325.845 330.337C325.773 329.806 325.594 329.294 325.32 328.833C325.046 328.371 324.682 327.97 324.25 327.652C323.818 327.334 323.326 327.106 322.804 326.982C322.282 326.858 321.74 326.84 321.211 326.93C320.682 327.02 320.176 327.215 319.724 327.504C319.272 327.793 318.882 328.17 318.579 328.612L303.663 348.903C302.705 348.257 301.705 347.677 300.669 347.165L314.476 328.387C314.807 327.966 315.051 327.481 315.192 326.964C315.333 326.446 315.369 325.905 315.296 325.373C315.224 324.842 315.046 324.33 314.772 323.868C314.498 323.407 314.134 323.006 313.701 322.688C313.269 322.37 312.777 322.142 312.255 322.018C311.733 321.894 311.191 321.876 310.662 321.966C310.133 322.056 309.627 322.251 309.175 322.54C308.723 322.829 308.334 323.206 308.03 323.648L292.634 344.59C291.574 344.419 290.504 344.312 289.43 344.272L301.135 325.572C301.681 324.672 301.85 323.594 301.607 322.57C301.363 321.546 300.727 320.66 299.835 320.102C298.942 319.544 297.866 319.36 296.84 319.59C295.813 319.82 294.918 320.444 294.348 321.329L277.819 347.701L275.585 351.276L275.725 349.593L276.625 338.975C276.687 337.932 276.339 336.907 275.655 336.118C274.972 335.328 274.007 334.837 272.967 334.749C271.927 334.661 270.893 334.983 270.087 335.647C269.281 336.31 268.765 337.262 268.651 338.3L266.743 360.925L266.503 361.259C264.057 364.437 262.281 368.078 261.283 371.962L200.14 444.461Z" fill="#EEEEEE" stroke="#1700A2" stroke-width="1.52024" stroke-miterlimit="10"/>
<path d="M208.322 463.901C218.015 473.594 233.73 473.594 243.423 463.901C253.116 454.208 253.116 438.493 243.423 428.8L167.829 353.206C158.136 343.513 142.421 343.513 132.728 353.206C123.035 362.899 123.035 378.615 132.728 388.308L208.322 463.901Z" fill="#4200FF"/>
<path d="M286.184 368.599L283.289 366.384C273.2 358.668 258.767 360.591 251.05 370.68L204.255 431.864C196.539 441.952 198.462 456.386 208.55 464.102L211.446 466.317C221.535 474.033 235.968 472.11 243.685 462.021L290.48 400.837C298.196 390.748 296.273 376.315 286.184 368.599Z" fill="#4200FF"/>
<path d="M308.643 390.101L265.761 345.478L240.521 369.732L283.403 414.355L308.643 390.101Z" fill="#4200FF"/>
<path d="M287.553 392.812C289.267 392.812 290.656 391.423 290.656 389.709C290.656 387.996 289.267 386.607 287.553 386.607C285.84 386.607 284.451 387.996 284.451 389.709C284.451 391.423 285.84 392.812 287.553 392.812Z" fill="#EEEEEE" stroke="#1700A2" stroke-width="1.52024" stroke-miterlimit="10"/>
<path d="M246.802 376.283C246.802 376.283 261.88 424.837 218.747 435.712L174.699 408.565L177.336 432.927L209.719 465.682C209.719 465.682 231.072 480.125 246.173 460.594L282.046 411.884L246.802 376.283Z" fill="#1700A2"/>
<path d="M223.122 407.246L227.411 418.935L223.905 413.963L221.873 407.246" fill="#1700A2"/>
<path d="M312.009 369.341L274.562 353.053L269.799 335.833L267.852 347.708L303.687 385.001C303.687 385.001 311.458 375.965 312.009 369.341Z" fill="#1700A2"/>
<path d="M308.62 390.097C308.62 390.097 280.697 412.482 240.503 369.721L283.38 414.351L308.62 390.097Z" fill="#1700A2"/>
<path d="M97.9266 340.053C118.987 340.053 139.185 348.419 154.077 363.311C168.97 378.204 177.336 398.402 177.336 419.462V562.683H18.5095V419.462C18.5095 409.033 20.5638 398.707 24.5549 389.072C28.5461 379.437 34.3961 370.683 41.7707 363.309C49.1454 355.935 57.9003 350.086 67.5356 346.095C77.1709 342.105 87.4978 340.052 97.9266 340.053Z" fill="#4200FF"/>
<path d="M99.5004 362.572L99.5079 362.574C105.341 363.966 111.199 360.365 112.591 354.532L118.977 327.764C120.369 321.93 116.769 316.073 110.935 314.681L110.928 314.679C105.094 313.287 99.237 316.888 97.8452 322.721L91.4582 349.489C90.0664 355.323 93.667 361.18 99.5004 362.572Z" fill="#EEEEEE" stroke="#1700A2" stroke-width="1.52024" stroke-miterlimit="10"/>
<path d="M32.3658 488.153C33.26 501.832 45.0736 512.196 58.7522 511.301C72.4309 510.407 82.7948 498.594 81.9007 484.915L74.9273 378.237C74.0332 364.559 62.2196 354.195 48.5409 355.089C34.8622 355.983 24.4984 367.797 25.3925 381.475L32.3658 488.153Z" fill="#4200FF"/>
<path d="M177.336 526.833V562.318L18.5405 562.683V421.518C18.5405 421.518 18.9981 397.473 25.3583 388.119L32.021 482.467C32.021 482.467 30.4698 511.561 60.13 511.522L151.073 519.472L151.662 528.547L177.336 526.833Z" fill="#1700A2"/>
<path d="M145.302 469.103L80.529 463.433L75.9373 393.13C75.9373 393.13 85.8421 463.255 145.302 469.103Z" fill="#1700A2"/>
<path d="M30.0741 365.346C30.0741 365.346 24.8154 372.172 25.653 384.947C26.4907 397.721 32.4864 484.189 32.4864 484.189C32.4864 484.189 26.3356 373.165 30.0741 365.346Z" fill="#1700A2"/>
<path d="M118.946 327.767L106.955 323.044L97.9265 321.011L92.5669 344.738C92.5669 344.738 87.3547 356.148 96.608 361.437L100.657 362.787C100.657 362.787 97.9343 328.248 118.946 327.767Z" fill="#1700A2"/>
<path d="M91.6051 481.521L90.2865 498.585C90.036 501.947 91.1263 505.272 93.3194 507.833C95.5125 510.393 98.6301 511.982 101.991 512.251L177.84 518.146C180.894 518.826 184.041 518.986 187.148 518.619C191.883 518.063 196.537 516.957 201.016 515.323L211.828 521.334C212.461 521.693 213.192 521.84 213.915 521.753H213.977L228.892 522.024C229.648 522.035 230.378 521.747 230.922 521.222C231.467 520.698 231.783 519.98 231.801 519.224L231.847 516.766C231.86 516.009 231.572 515.279 231.048 514.734C230.523 514.188 229.804 513.873 229.047 513.857L214.706 513.57L210.711 511.344C215.93 509.101 220.826 506.171 225.27 502.634L250.556 520.256C251.445 520.856 252.534 521.081 253.588 520.883C254.642 520.686 255.576 520.081 256.188 519.2C256.799 518.32 257.04 517.233 256.857 516.177C256.673 515.12 256.082 514.178 255.209 513.555L230.761 496.491C231.409 495.475 231.952 494.397 232.383 493.272L256.101 509.816C256.991 510.354 258.052 510.533 259.069 510.316C260.085 510.099 260.981 509.503 261.574 508.65C262.167 507.796 262.412 506.748 262.26 505.72C262.108 504.692 261.57 503.76 260.755 503.114L232.832 483.654L230.614 482.103C230.435 481.972 230.242 481.86 230.04 481.769L232.569 482.731L252.51 490.223C253.012 490.413 253.546 490.502 254.082 490.485C254.618 490.468 255.145 490.346 255.634 490.125C256.123 489.904 256.563 489.589 256.93 489.198C257.297 488.807 257.583 488.348 257.773 487.846C257.962 487.345 258.051 486.81 258.034 486.274C258.017 485.739 257.895 485.211 257.674 484.722C257.453 484.234 257.139 483.793 256.748 483.426C256.357 483.059 255.897 482.773 255.396 482.584L223.595 470.569C220.893 468.641 217.893 467.171 214.714 466.218C211.146 465.132 206.67 465.682 201.978 466.993C197.19 468.436 192.5 470.187 187.939 472.237L184.836 473.547C184.689 473.617 184.526 473.679 184.371 473.741C182.959 474.331 181.617 474.949 180.345 475.595L105.233 469.801C101.874 469.559 98.5562 470.656 96.003 472.852C93.4498 475.047 91.8688 478.164 91.6051 481.521Z" fill="#EEEEEE" stroke="#1700A2" stroke-width="1.52024" stroke-miterlimit="10"/>
<path d="M59.3804 461.601C45.7247 460.407 33.6861 470.508 32.4914 484.164C31.2966 497.82 41.3982 509.858 55.0539 511.053L156.275 519.909C169.931 521.103 181.97 511.002 183.164 497.346C184.359 483.69 174.257 471.652 160.602 470.457L59.3804 461.601Z" fill="#4200FF"/>
<path d="M147.615 466.726L151.652 528.482L186.582 526.198L182.545 464.442L147.615 466.726Z" fill="#4200FF"/>
<path d="M168.641 483.398C170.354 483.398 171.744 482.009 171.744 480.295C171.744 478.582 170.354 477.193 168.641 477.193C166.928 477.193 165.538 478.582 165.538 480.295C165.538 482.009 166.928 483.398 168.641 483.398Z" fill="#EEEEEE" stroke="#1700A2" stroke-width="1.52024" stroke-miterlimit="10"/>
<path d="M80.5291 463.433L59.0596 475.409L79.4587 447.028L80.3817 461.222" fill="#1700A2"/>
<path d="M147.358 469.281L151.065 519.434H144.216L132.528 467.986L147.358 469.281Z" fill="#1700A2"/>
<path d="M183.905 484.577C183.905 484.577 182.649 523.739 151.701 528.509L186.605 526.229L183.905 484.577Z" fill="#1700A2"/>
<path d="M187.962 472.252C187.962 472.252 195.253 509.855 214.807 509.397L210.735 511.375L216.661 513.64L230.219 514.159C230.219 514.159 234.097 516.323 231.056 521.14L224.076 522.055L211.828 521.334L201.032 515.292L187.14 518.588L185.139 518.906L183.2 474.269L187.962 472.252Z" fill="#1700A2"/>
<path d="M255.892 514.121C255.892 514.121 242.218 512.965 225.216 502.044L250.556 520.225C250.556 520.225 254.915 522.226 255.892 517.937C256.869 513.648 255.892 514.121 255.892 514.121Z" fill="#1700A2"/>
<path d="M260.608 503.975C260.608 503.975 244.397 501.346 232.39 493.256L256.326 510.615C256.326 510.615 263.23 510.056 263.09 505.914C262.95 501.773 262.4 505.775 262.4 505.775C262.4 505.775 261.376 504.115 260.608 503.975Z" fill="#1700A2"/>
<path d="M258.025 486.702L230.056 481.753L252.51 490.223C252.51 490.223 257.8 490.441 258.025 486.702Z" fill="#1700A2"/>
<path d="M118.744 333.919C133.437 333.046 144.359 315.688 143.138 295.15C141.918 274.612 129.018 258.67 114.325 259.542C99.6323 260.415 88.7105 277.773 89.9307 298.311C91.1509 318.85 104.051 334.792 118.744 333.919Z" fill="#EEEEEE" stroke="#1700A2" stroke-width="1.52024" stroke-miterlimit="10"/>
<path d="M139.601 285.402C141.148 285.402 142.401 284.148 142.401 282.602C142.401 281.056 141.148 279.802 139.601 279.802C138.055 279.802 136.801 281.056 136.801 282.602C136.801 284.148 138.055 285.402 139.601 285.402Z" fill="#1700A2"/>
<path d="M124.127 290.567C125.674 290.567 126.927 289.314 126.927 287.767C126.927 286.221 125.674 284.967 124.127 284.967C122.581 284.967 121.327 286.221 121.327 287.767C121.327 289.314 122.581 290.567 124.127 290.567Z" fill="#1700A2"/>
<path d="M112.198 292.677C112.198 292.677 114.572 276.862 125.64 277.747" stroke="#1700A2" stroke-width="1.52024" stroke-miterlimit="10" stroke-linecap="round"/>
<path d="M132.869 273.574C132.869 273.574 137.337 282.579 146.008 273.395" stroke="#1700A2" stroke-width="1.52024" stroke-miterlimit="10" stroke-linecap="round"/>
<path d="M130.992 284.06L134.754 304.327L127.61 304.731L130.992 284.06Z" fill="#E180FF"/>
<path d="M123.088 300.735C123.228 299.881 121.47 298.883 119.161 298.506C116.853 298.128 114.869 298.514 114.729 299.368C114.589 300.222 116.347 301.22 118.656 301.598C120.964 301.976 122.948 301.589 123.088 300.735Z" fill="#E180FF"/>
<path d="M141.91 298.312C141.98 297.881 140.687 297.311 139.022 297.038C137.356 296.766 135.948 296.894 135.878 297.326C135.807 297.757 137.101 298.327 138.766 298.6C140.432 298.872 141.839 298.743 141.91 298.312Z" fill="#E180FF"/>
<path d="M297.381 294.896C297.381 294.896 302.942 281.33 310.248 284.456C317.555 287.581 323.124 295.245 323.124 295.245C323.124 295.245 343.29 299.767 341.561 310.199C341.561 310.199 356.523 317.854 355.127 337.687L335.301 345.335C335.301 345.335 326.622 289.676 297.381 294.896Z" fill="#EEEEEE" stroke="#1700A2" stroke-width="1.46595" stroke-miterlimit="10"/>
<path d="M299.475 291.072L223.525 349.399L339.808 339.751C339.808 339.751 346.788 310.548 299.475 291.072Z" fill="#EEEEEE" stroke="#1700A2" stroke-width="1.46595" stroke-miterlimit="10"/>
<path d="M222.237 350.206V357.513C222.237 357.862 355.127 348.12 355.127 348.12C355.127 348.12 358.609 332.817 352.024 332.118C345.439 331.42 339.808 339.751 339.808 339.751L222.237 350.206Z" fill="#1700A2"/>
<path d="M223.517 349.834C223.517 349.834 226.061 355.403 230.583 352.936C235.105 350.47 238.068 348.414 239.456 351.199C240.845 353.983 250.245 352.417 251.285 350.33C252.324 348.244 255.636 352.238 261.197 350.501C266.759 348.763 265.549 347.398 269.729 347.716C273.91 348.034 271.281 350.501 277.904 349.454C284.528 348.407 286.258 344.59 288.345 344.932C290.431 345.273 297.039 349.454 301.212 347.716C305.385 345.979 304.315 342.155 307.821 343.543C311.327 344.932 317.904 348.414 318.959 345.63C320.014 342.845 325.939 342.527 330.089 344.932C334.239 347.336 337.745 346.677 337.745 344.932C337.745 343.187 341.219 337.804 341.219 337.804C341.219 337.804 347.021 311.657 302.841 292.522" fill="#EEEEEE"/>
<path d="M223.517 349.834C223.517 349.834 226.061 355.403 230.583 352.936C235.105 350.47 238.068 348.414 239.456 351.199C240.845 353.983 250.245 352.417 251.285 350.33C252.324 348.244 255.636 352.238 261.197 350.501C266.759 348.763 265.549 347.398 269.729 347.716C273.91 348.034 271.281 350.501 277.904 349.454C284.528 348.407 286.258 344.59 288.345 344.932C290.431 345.273 297.039 349.454 301.212 347.716C305.385 345.979 304.315 342.155 307.821 343.543C311.327 344.932 317.904 348.414 318.959 345.63C320.014 342.845 325.939 342.527 330.089 344.932C334.239 347.336 337.745 346.677 337.745 344.932C337.745 343.187 341.219 337.804 341.219 337.804C341.219 337.804 347.021 311.657 302.841 292.522" stroke="#1700A2" stroke-width="1.46595" stroke-miterlimit="10"/>
<path d="M277.808 336.569C286.06 334.738 292.31 331.278 291.769 328.84C291.228 326.401 284.101 325.909 275.849 327.74C267.598 329.571 261.348 333.031 261.889 335.469C262.43 337.907 269.557 338.4 277.808 336.569Z" fill="#E180FF"/>
<path d="M296.695 313.861C301.764 312.736 305.434 309.848 304.893 307.41C304.352 304.972 299.805 303.907 294.736 305.031C289.667 306.156 285.997 309.044 286.538 311.482C287.079 313.92 291.626 314.985 296.695 313.861Z" fill="#E180FF"/>
<path d="M317.3 332.31C322.478 331.935 326.53 329.612 326.349 327.121C326.169 324.63 321.825 322.915 316.647 323.29C311.469 323.665 307.417 325.988 307.597 328.479C307.778 330.969 312.121 332.685 317.3 332.31Z" fill="#E180FF"/>
<path d="M336.814 189.859C352.706 189.859 365.59 176.976 365.59 161.083C365.59 145.191 352.706 132.307 336.814 132.307C320.921 132.307 308.038 145.191 308.038 161.083C308.038 176.976 320.921 189.859 336.814 189.859Z" fill="#EEEEEE" stroke="#1700A2" stroke-width="2.94741" stroke-miterlimit="10"/>
<path d="M337.892 72.7621L251.75 158.904H260.46H431.193L337.892 72.7621Z" fill="#4200FF"/>
<path d="M337.892 72.762V6.94171" stroke="#1700A2" stroke-width="2.94741" stroke-miterlimit="10"/>
<path d="M431.193 158.904C431.193 158.904 349.651 75.6474 251.75 158.904L337.892 72.7621L431.193 158.904Z" fill="#1700A2"/>
<path d="M481.407 125.11C492.275 125.11 501.085 116.3 501.085 105.432C501.085 94.5641 492.275 85.7541 481.407 85.7541C470.54 85.7541 461.729 94.5641 461.729 105.432C461.729 116.3 470.54 125.11 481.407 125.11Z" fill="#EEEEEE" stroke="#1700A2" stroke-width="2.01665" stroke-miterlimit="10"/>
<path d="M482.144 45.0178L423.227 103.935H429.184H545.956L482.144 45.0178Z" fill="#4200FF"/>
<path d="M482.144 45.0178V6.10352e-05" stroke="#1700A2" stroke-width="2.01665" stroke-miterlimit="10"/>
<path d="M545.956 103.958C545.956 103.958 490.18 47.0188 423.227 103.958L482.175 45.0099L545.956 103.958Z" fill="#1700A2"/>
<path d="M154.812 138.055C165.679 138.055 174.489 129.245 174.489 118.377C174.489 107.509 165.679 98.6994 154.812 98.6994C143.944 98.6994 135.134 107.509 135.134 118.377C135.134 129.245 143.944 138.055 154.812 138.055Z" fill="#EEEEEE" stroke="#1700A2" stroke-width="2.01665" stroke-miterlimit="10"/>
<path d="M155.548 57.9631L96.6311 116.88H102.588H219.36L155.548 57.9631Z" fill="#4200FF"/>
<path d="M155.548 57.9629V12.9451" stroke="#1700A2" stroke-width="2.01665" stroke-miterlimit="10"/>
<path d="M219.36 116.88C219.36 116.88 163.584 59.941 96.6311 116.88L155.579 57.9321L219.36 116.88Z" fill="#1700A2"/>
<path d="M91.7912 300.209C96.272 300.209 99.9043 296.576 99.9043 292.096C99.9043 287.615 96.272 283.982 91.7912 283.982C87.3105 283.982 83.6781 287.615 83.6781 292.096C83.6781 296.576 87.3105 300.209 91.7912 300.209Z" fill="#EEEEEE"/>
<path d="M112.431 331.909L114.277 308.322L141.92 307.949L139.71 365.455L111.329 367.293L112.431 331.909Z" fill="#E180FF"/>
<path d="M124.182 313.837C124.182 317.87 126.067 321.143 128.386 321.143C130.705 321.143 132.582 317.87 132.582 313.837C132.582 309.803 130.705 315.116 128.386 315.116C126.067 315.116 124.182 309.803 124.182 313.837Z" fill="#EEEEEE"/>
<path d="M114.277 308.322C114.277 308.322 119.877 361.468 139.694 365.455L110.6 367.293L114.277 308.322Z" fill="#1700A2"/>
<path d="M92.9858 340.115C92.9858 340.115 68.1034 342.078 51.7919 355.038C51.7919 355.038 72.9667 356.349 74.96 378.23L77.2326 404.524C77.2326 404.524 86.8893 359.056 99.4778 362.577C99.4778 362.577 90.7752 350.609 92.9858 340.115Z" fill="#1700A2"/>
<path d="M259.514 322.144C259.514 322.144 232.972 340.759 253.612 350.16L252.689 352.936L223.758 356.256L223.517 349.415L259.514 322.144Z" fill="#1700A2"/>
<path d="M299.475 291.072C299.475 291.072 341.902 305.188 342.088 340.759C342.088 340.759 341.537 307.95 293.223 295.601L299.475 291.072Z" fill="#1700A2"/>
<path d="M341.53 309.609C341.53 309.609 338.947 311.634 338.761 314.581C338.761 314.581 341.157 311.634 345.586 313.48L341.53 309.609Z" fill="#1700A2"/>
<path d="M321.805 294.492L320.704 299.472L325.49 295.788L321.805 294.492Z" fill="#1700A2"/>
<path d="M591.788 562.9H432.961V419.687C432.96 409.259 435.014 398.932 439.004 389.296C442.994 379.661 448.843 370.906 456.217 363.532C463.591 356.157 472.345 350.307 481.98 346.316C491.615 342.325 501.942 340.27 512.371 340.27C522.8 340.269 533.128 342.323 542.763 346.314C552.399 350.304 561.155 356.154 568.529 363.529C575.904 370.904 581.754 379.659 585.745 389.295C589.735 398.93 591.789 409.258 591.788 419.687V562.9Z" fill="#4200FF"/>
<path d="M499.428 314.844L499.42 314.846C493.587 316.238 489.986 322.095 491.378 327.929L497.765 354.697C499.157 360.53 505.014 364.131 510.847 362.739L510.855 362.737C516.688 361.345 520.289 355.488 518.897 349.655L512.51 322.886C511.118 317.053 505.261 313.452 499.428 314.844Z" fill="#EEEEEE" stroke="#1700A2" stroke-width="1.52024" stroke-miterlimit="10"/>
<path d="M491.359 327.992L503.342 323.268L512.378 321.236L517.738 344.955C517.738 344.955 522.942 356.372 513.697 361.662L509.671 363.019C509.671 363.019 512.363 328.473 491.359 327.992Z" fill="#1700A2"/>
<path d="M520.361 298.526C521.581 277.987 510.659 260.63 495.967 259.757C481.274 258.884 468.374 274.826 467.153 295.365C465.933 315.903 476.855 333.26 491.548 334.133C506.241 335.006 519.141 319.064 520.361 298.526Z" fill="#EEEEEE" stroke="#1700A2" stroke-width="1.52024" stroke-miterlimit="10"/>
<path d="M471.805 295.307C473.351 295.307 474.605 294.053 474.605 292.507C474.605 290.96 473.351 289.707 471.805 289.707C470.258 289.707 469.005 290.96 469.005 292.507C469.005 294.053 470.258 295.307 471.805 295.307Z" fill="#1700A2"/>
<path d="M486.457 294.384C488.003 294.384 489.257 293.13 489.257 291.584C489.257 290.037 488.003 288.784 486.457 288.784C484.91 288.784 483.657 290.037 483.657 291.584C483.657 293.13 484.91 294.384 486.457 294.384Z" fill="#1700A2"/>
<path d="M479.305 284.285L475.551 304.552L482.695 304.956L479.305 284.285Z" fill="#E180FF"/>
<path d="M491.612 301.909C493.92 301.531 495.678 300.533 495.538 299.679C495.399 298.825 493.414 298.439 491.106 298.817C488.798 299.194 487.04 300.193 487.18 301.046C487.319 301.9 489.304 302.287 491.612 301.909Z" fill="#E180FF"/>
<path d="M472.689 300.863C474.36 300.593 475.658 300.023 475.588 299.591C475.518 299.158 474.107 299.026 472.436 299.296C470.765 299.566 469.467 300.136 469.537 300.569C469.607 301.001 471.018 301.133 472.689 300.863Z" fill="#E180FF"/>
<path d="M465.522 285.65L475.753 281.78" stroke="#1700A2" stroke-width="1.52024" stroke-miterlimit="10" stroke-linecap="round"/>
<path d="M485.154 282.051C485.154 282.051 495.656 286.752 495.377 287.861" stroke="#1700A2" stroke-width="1.52024" stroke-miterlimit="10" stroke-linecap="round"/>
<path d="M410.577 264.584C410.577 264.584 405.519 252.267 398.896 255.113C392.272 257.96 387.207 264.894 387.207 264.894C387.207 264.894 368.902 269.005 370.476 278.475C370.476 278.475 356.903 285.417 358.167 303.412L376.162 310.393C376.162 310.393 384.019 259.86 410.577 264.584Z" fill="#EEEEEE" stroke="#1700A2" stroke-width="1.32633" stroke-miterlimit="10"/>
<path d="M408.676 261.109L477.614 314.046L372.059 305.312C372.059 305.312 365.745 278.786 408.676 261.109Z" fill="#EEEEEE" stroke="#1700A2" stroke-width="1.32633" stroke-miterlimit="10"/>
<path d="M478.77 314.783V321.414C478.77 321.725 358.167 312.882 358.167 312.882C358.167 312.882 355.01 298.991 361.006 298.355C367.001 297.719 372.059 305.336 372.059 305.336L478.77 314.783Z" fill="#1700A2"/>
<path d="M477.614 314.465C477.614 314.465 475.288 319.514 471.192 317.304C467.097 315.093 464.405 313.201 463.141 315.753C461.877 318.304 453.353 316.854 452.406 314.977C451.46 313.1 448.458 316.714 443.409 315.132C438.36 313.55 439.461 312.293 435.653 312.611C431.844 312.929 434.225 315.132 428.23 314.163C422.234 313.193 420.652 309.741 418.759 310.059C416.867 310.377 410.887 314.155 407.102 312.603C403.316 311.052 404.255 307.554 401.098 308.811C397.941 310.067 391.946 313.232 391.015 310.711C390.084 308.19 384.701 307.864 380.932 310.075C377.162 312.285 373.951 311.626 373.951 310.075C373.951 308.524 370.794 303.606 370.794 303.606C370.794 303.606 365.528 279.872 405.628 262.498" fill="#EEEEEE"/>
<path d="M477.614 314.465C477.614 314.465 475.288 319.514 471.192 317.304C467.097 315.093 464.405 313.201 463.141 315.753C461.877 318.304 453.353 316.854 452.406 314.977C451.46 313.1 448.458 316.714 443.409 315.132C438.36 313.55 439.461 312.293 435.653 312.611C431.844 312.929 434.225 315.132 428.23 314.163C422.234 313.193 420.652 309.741 418.759 310.059C416.867 310.377 410.887 314.155 407.102 312.603C403.316 311.052 404.255 307.554 401.098 308.811C397.941 310.067 391.946 313.232 391.015 310.711C390.084 308.19 384.701 307.864 380.932 310.075C377.162 312.285 373.951 311.626 373.951 310.075C373.951 308.524 370.794 303.606 370.794 303.606C370.794 303.606 365.528 279.872 405.628 262.498" stroke="#1700A2" stroke-width="1.32633" stroke-miterlimit="10"/>
<path d="M442.724 301.333C443.215 299.12 437.541 295.98 430.051 294.318C422.561 292.656 416.092 293.102 415.601 295.314C415.11 297.527 420.784 300.667 428.274 302.329C435.764 303.991 442.233 303.545 442.724 301.333Z" fill="#E180FF"/>
<path d="M420.355 279.554C420.846 277.342 417.515 274.721 412.915 273.7C408.314 272.679 404.187 273.645 403.696 275.858C403.206 278.07 406.537 280.691 411.137 281.711C415.737 282.732 419.864 281.766 420.355 279.554Z" fill="#E180FF"/>
<path d="M401.327 295.085C401.49 292.825 397.813 290.717 393.113 290.377C388.414 290.037 384.471 291.593 384.307 293.853C384.144 296.114 387.821 298.222 392.521 298.562C397.221 298.902 401.163 297.345 401.327 295.085Z" fill="#E180FF"/>
<path d="M444.945 289.334C444.945 289.334 469.028 306.228 450.297 314.76L451.134 317.265L477.39 320.274L477.614 314.069L444.945 289.334Z" fill="#1700A2"/>
<path d="M408.676 261.109C408.676 261.109 370.174 273.922 370.003 306.204C370.003 306.204 370.507 276.428 414.331 265.22L408.676 261.109Z" fill="#1700A2"/>
<path d="M370.507 277.933C370.507 277.933 372.834 279.779 373.013 282.455C373.013 282.455 370.841 279.779 366.808 281.446L370.507 277.933Z" fill="#1700A2"/>
<path d="M388.401 264.219L389.41 268.734L385.058 265.391L388.401 264.219Z" fill="#1700A2"/>
<path d="M485.138 425.916L496.618 413.203C498.869 410.696 500.037 407.4 499.867 404.034C499.697 400.669 498.203 397.507 495.71 395.24L439.244 344.226C437.244 341.826 434.856 339.778 432.178 338.168" stroke="#1700A2" stroke-width="1.52024" stroke-miterlimit="10"/>
<path d="M480.034 325.176C481.487 325.176 482.664 322.207 482.664 318.545C482.664 314.882 481.487 311.913 480.034 311.913C478.582 311.913 477.405 314.882 477.405 318.545C477.405 322.207 478.582 325.176 480.034 325.176Z" fill="#EEEEEE" stroke="#1700A2" stroke-width="1.52024" stroke-miterlimit="10"/>
<path d="M578.92 374.794C578.92 374.794 486.255 496.312 432.62 476.96L432.961 562.908H591.788L591.586 421.115C591.586 421.115 594.991 402.841 578.92 374.794Z" fill="#1700A2"/>
<path d="M569.35 343.468L566.403 341.905C555.107 335.914 541.093 340.215 535.101 351.511L493.428 430.086C487.437 441.382 491.737 455.397 503.034 461.388L505.98 462.951C517.277 468.942 531.291 464.641 537.282 453.345L578.956 374.77C584.947 363.474 580.646 349.459 569.35 343.468Z" fill="#E180FF"/>
<path d="M450.33 353.087C440.168 343.888 424.472 344.67 415.273 354.833C406.074 364.995 406.855 380.691 417.018 389.89L492.349 458.077C502.512 467.276 518.208 466.494 527.407 456.332C536.606 446.169 535.824 430.473 525.662 421.274L450.33 353.087Z" fill="#E180FF"/>
<path d="M439.775 332.986L391.754 372.025L413.835 399.187L461.856 360.147L439.775 332.986Z" fill="#E180FF"/>
<path d="M437.638 357.047C439.352 357.047 440.741 355.658 440.741 353.945C440.741 352.231 439.352 350.842 437.638 350.842C435.925 350.842 434.536 352.231 434.536 353.945C434.536 355.658 435.925 357.047 437.638 357.047Z" fill="#EEEEEE" stroke="#1700A2" stroke-width="1.52024" stroke-miterlimit="10"/>
<path d="M460.186 362.05L420.892 393.44L425.554 398.466L471.223 372.048L460.186 362.05Z" fill="#1700A2"/>
<path d="M424.142 345.692C424.142 345.692 396.289 373.242 413.834 399.211L391.775 372.017L424.142 345.692Z" fill="#1700A2"/>
<path d="M403.037 385.172L413.834 399.18L422.118 393.192C422.118 393.192 434.83 404.252 434.28 405.602C433.729 406.952 433.302 412.42 432.961 419.656C432.62 426.893 432.62 470.298 432.62 470.298C432.62 470.298 418.527 476.099 405.256 457.298C405.256 457.298 398.895 451.775 399.725 436.844C400.555 421.913 403.037 385.172 403.037 385.172Z" fill="#1700A2"/>
<path d="M420.179 332.374L432.178 338.199C432.178 338.199 440.919 333.227 440.919 334.057C440.919 334.887 456.928 354.767 456.928 354.767L461.078 334.026C461.078 334.026 420.179 331.544 420.179 332.374Z" fill="#1700A2"/>
<path d="M357.492 319.297C359.501 319.15 371.523 353.937 385.345 349.787C399.167 345.638 404.697 325.743 426.818 343.427L393.916 371.908C393.916 371.908 378.589 370.644 373.936 353.859L356.096 324.921C356.096 324.921 354.793 319.499 357.492 319.297Z" fill="#1700A2"/>
<path d="M369.282 299.751L375.402 340.472L366.792 309.702C366.792 309.702 360.463 300.852 369.282 299.751Z" fill="#1700A2"/>
<path d="M380.094 295.881L384.128 329L375.394 301.962C375.394 301.962 374.564 294.764 380.094 295.881Z" fill="#1700A2"/>
<path d="M397.205 312.464L410.476 321.314L411.306 331.265L405.775 324.075L395.576 314.93C395.576 314.93 396.429 312.743 397.205 312.464Z" fill="#1700A2"/>
<path d="M403.317 251.088L410.507 255.238V261.318L408.296 259.938C408.296 259.938 403.867 254.687 402.215 254.408L403.317 251.088Z" fill="#1700A2"/>
<path d="M414.377 257.727C414.377 257.727 421.567 261.869 421.567 262.978C421.567 264.087 422.118 270.735 422.118 270.735L413.586 264.103L414.377 257.727Z" fill="#1700A2"/>
<path d="M436.219 275.699L444.231 276.249L445.341 288.14L437.32 282.051L436.785 279.049C435.661 276.8 436.219 275.699 436.219 275.699Z" fill="#1700A2"/>
<path d="M518.878 309.152L570.341 320.43L516.388 313.666L518.878 309.152Z" fill="#1700A2"/>
<path d="M519.987 294.772L574.646 289.42L520.538 299.472L519.987 294.772Z" fill="#1700A2"/>
<path d="M519.157 284.262L584.404 251.918L519.708 288.691L519.157 284.262Z" fill="#1700A2"/>
<path d="M513.627 268.78L564.741 226.105L515.287 274.039L513.627 268.78Z" fill="#1700A2"/>
<path d="M625.939 569.439L7.06885 569.439C3.86798 569.439 0.798279 568.167 -1.46509 565.904C-3.72845 563.641 -5 560.571 -5 557.37L638 557.37C638 560.57 636.73 563.638 634.468 565.901C632.206 568.164 629.138 569.437 625.939 569.439Z" fill="#EEEEEE" stroke="#1700A2" stroke-width="0.860953" stroke-miterlimit="10"/>
<path d="M636.379 561.97H-3.37892C-4.42255 560.128 -4.98042 558.051 -5 555.935H638C638 555.935 637.348 560.24 636.379 561.97Z" fill="#1700A2"/>
</svg>
