<svg width="644" height="624" viewBox="0 0 644 624" fill="none" xmlns="http://www.w3.org/2000/svg">
<path d="M206.464 539.339C184.14 538.045 165.256 522.374 159.868 500.671L84.3517 196.49C79.086 175.279 87.9042 153.07 106.285 141.248L252.018 47.5195C271.873 34.7493 297.895 37.2576 314.946 53.5853L580.838 308.202C595.437 322.182 600.414 343.459 593.53 362.464L535.78 521.89C528.09 543.12 507.366 556.777 484.824 555.471L206.464 539.339Z" fill="#080065"/>
<path d="M95.0182 535.004C99.0805 544.767 108.617 551.127 119.191 551.127H550.495C567.894 551.127 580.453 534.471 575.667 517.744L458.389 107.819C452.681 87.8652 427.134 82.1688 413.49 97.8066L85.3663 473.854C78.8176 481.359 77.0947 491.93 80.9213 501.126L95.0182 535.004Z" fill="url(#paint0_linear_328_42)"/>
<path d="M490.265 301.527C490.265 301.527 490.104 300.794 489.803 299.446C486.312 283.793 464.293 185.071 462.971 184.189C461.531 183.233 416.991 148.752 394.025 186.105C371.06 223.457 387.323 273.268 387.323 273.268L490.305 300.567" fill="url(#paint1_linear_328_42)"/>
<path d="M440.328 274.857L415.473 273.805L422.996 233.459L423.694 229.715L423.786 229.213L433.957 229.885L433.992 230.129L435.419 240.201L440.328 274.857Z" fill="#F6F4E7"/>
<path d="M435.419 240.201L422.996 233.459L423.694 229.715L433.992 230.129L435.419 240.201Z" fill="black"/>
<path d="M426.421 231.395C437.83 231.395 447.079 222.146 447.079 210.737C447.079 199.329 437.83 190.08 426.421 190.08C415.012 190.08 405.764 199.329 405.764 210.737C405.764 222.146 415.012 231.395 426.421 231.395Z" fill="#F6F4E7"/>
<path d="M219.026 273.6L180.19 249.6L185.509 232.145L199.036 247.418L211.608 243.927L230.808 256.145L219.026 273.6Z" fill="#F6F4E7"/>
<path d="M338.773 574.015L357.458 393.133L352.388 395.751L345.183 399.46L328.601 407.991L212.564 276.441C212.564 276.441 226.187 246.607 227.431 245.302L319.036 326.836L370.881 266.182L370.837 266.653L402.534 270.026L401.945 251.756L414.927 256.582L417.812 271.636L427.573 272.675L436.999 257.799L460.597 256.591L457.673 275.882L509.601 281.407L513.964 572.291L338.773 574.015Z" fill="#809FFF"/>
<path d="M240.6 405.539L191.396 288.092L202.523 286.935L247.521 401.481L254.642 398.356L242.228 285.107L260.127 283.911L260.411 403.937L240.6 405.539Z" fill="#080065"/>
<path d="M457.7 221.057C449.199 219.644 441.196 211.684 436.082 205.418C426.094 211.357 412.453 215.018 398.315 205.257L412.204 188.012C412.204 188.012 439.979 176.518 451.953 191.843C450.909 193.113 449.802 194.331 448.636 195.491C463.521 199.235 457.7 221.057 457.7 221.057Z" fill="url(#paint2_linear_328_42)"/>
<path d="M307.935 517.213C289.543 535.651 265.01 546.678 239.012 548.195L268.519 611.904L260.743 615.5L229.656 548.369H223.983V605.564H215.404V548.387H210.818L181.975 610.678L174.199 607.078L201.436 548.256C145.093 545.52 100.257 498.973 100.257 441.949H339.109C339.127 455.929 336.383 469.776 331.033 482.692C325.683 495.608 317.834 507.34 307.935 517.213Z" fill="#4200FF"/>
<path d="M221.343 455.869C279.467 455.869 326.585 453.607 326.585 450.816C326.585 448.025 279.467 445.763 221.343 445.763C163.22 445.763 116.101 448.025 116.101 450.816C116.101 453.607 163.22 455.869 221.343 455.869Z" fill="black"/>
<path d="M384.927 266.182L379.691 325.527L360.465 348.938L338.673 573.818L456.491 571.636L452.127 338.182L439.036 330.764L466.527 272.291L458.14 271.793L422.018 308.945L392.782 305.454L398.891 268.8L384.927 266.182Z" fill="#4200FF"/>
<path d="M250.527 421.091L278.136 430.255C280.104 426.035 282.146 421.846 284.332 417.722C288.216 410.378 292.274 403.056 295.992 395.577L277.665 392.788L260.127 363.927L260.564 379.636L218.167 353.018L240.927 386.103L217.364 364.364L234.587 390.148L223.036 378.764L232.636 397.964L218.673 389.236L250.527 421.091Z" fill="#F6F4E7"/>
<path d="M488.782 263.965C500.415 266.068 513.999 277.414 519.249 283.405C523.425 288.175 527.016 293.59 528.849 299.655C533.854 316.137 521.151 338.103 515.841 353.389C515.841 359.023 511.041 367.265 509.151 372.641L501.628 394.298C497.055 407.472 492.596 420.681 488.075 433.876C486.814 437.546 467.055 496.599 466.614 496.468L258.905 435.539L285.96 391.994L424.545 398.23C429.694 398.465 439.25 355.693 440.843 350.767C447.519 330.112 454.946 309.713 463.124 289.571C467.492 278.867 474.133 261.316 488.782 263.965Z" fill="#809FFF"/>
<path d="M511.067 366.515L466.841 496.695L348.897 462.113L514.252 537.6L511.067 366.515Z" fill="#080065"/>
<path d="M446.454 334.255C423.467 388.852 392.345 397.091 392.345 397.091L427.228 399.273L446.454 334.255Z" fill="#080065"/>
<path d="M356.127 393.6L363.545 328.145L340.855 384L314.633 392.073C314.633 392.073 315.358 393.452 315.672 393.526C315.986 393.6 352.052 395.049 352.999 394.979C353.945 394.909 356.127 393.6 356.127 393.6Z" fill="#080065"/>
<path d="M165.837 169.186L162.264 170.816L216.976 290.704L220.549 289.074L165.837 169.186Z" fill="#FD612E"/>
<path d="M196.51 254.758L192.665 229.606L190.03 251.856L196.51 254.758Z" fill="#F6F4E7"/>
<path d="M186.22 240.41L189.1 220.844L180.273 249.164L186.22 240.41Z" fill="#F6F4E7"/>
<path d="M188.28 245.948L192.142 225.007L184.235 241.414L188.28 245.948Z" fill="#F6F4E7"/>
<path d="M206.018 246.109L197.727 240.436L213 245.236L212.127 252.218L206.018 246.109Z" fill="#F6F4E7"/>
<path d="M183.327 219.491C188.388 219.491 192.491 215.388 192.491 210.327C192.491 205.266 188.388 201.164 183.327 201.164C178.266 201.164 174.164 205.266 174.164 210.327C174.164 215.388 178.266 219.491 183.327 219.491Z" fill="#FCC75F"/>
<path d="M170.236 191.127C174.815 191.127 178.527 187.415 178.527 182.836C178.527 178.257 174.815 174.545 170.236 174.545C165.657 174.545 161.945 178.257 161.945 182.836C161.945 187.415 165.657 191.127 170.236 191.127Z" fill="#FCC75F"/>
<path d="M161.509 171.927C166.57 171.927 170.673 167.825 170.673 162.764C170.673 157.703 166.57 153.6 161.509 153.6C156.448 153.6 152.345 157.703 152.345 162.764C152.345 167.825 156.448 171.927 161.509 171.927Z" fill="#FCC75F"/>
<path d="M95.1818 397.964C98.3147 397.964 100.854 395.424 100.854 392.291C100.854 389.158 98.3147 386.618 95.1818 386.618C92.0488 386.618 89.509 389.158 89.509 392.291C89.509 395.424 92.0488 397.964 95.1818 397.964Z" fill="#080065"/>
<path d="M90.3819 310.691C93.0329 310.691 95.1819 308.542 95.1819 305.891C95.1819 303.24 93.0329 301.091 90.3819 301.091C87.7309 301.091 85.5819 303.24 85.5819 305.891C85.5819 308.542 87.7309 310.691 90.3819 310.691Z" fill="#080065"/>
<path d="M382.745 91.6364C384.673 91.6364 386.236 90.0734 386.236 88.1454C386.236 86.2175 384.673 84.6545 382.745 84.6545C380.817 84.6545 379.255 86.2175 379.255 88.1454C379.255 90.0734 380.817 91.6364 382.745 91.6364Z" fill="#080065"/>
<path d="M535.909 236.509C539.524 236.509 542.455 233.579 542.455 229.964C542.455 226.349 539.524 223.418 535.909 223.418C532.294 223.418 529.364 226.349 529.364 229.964C529.364 233.579 532.294 236.509 535.909 236.509Z" fill="#080065"/>
<path d="M349.145 68.5091C354.688 68.5091 359.182 64.0156 359.182 58.4727C359.182 52.9298 354.688 48.4363 349.145 48.4363C343.603 48.4363 339.109 52.9298 339.109 58.4727C339.109 64.0156 343.603 68.5091 349.145 68.5091Z" fill="#080065"/>
<path d="M576.927 457.745C579.578 457.745 581.727 455.596 581.727 452.945C581.727 450.294 579.578 448.145 576.927 448.145C574.276 448.145 572.127 450.294 572.127 452.945C572.127 455.596 574.276 457.745 576.927 457.745Z" fill="#080065"/>
<path d="M301.582 591.273C304.715 591.273 307.255 588.733 307.255 585.6C307.255 582.467 304.715 579.927 301.582 579.927C298.449 579.927 295.909 582.467 295.909 585.6C295.909 588.733 298.449 591.273 301.582 591.273Z" fill="#080065"/>
<path d="M260.898 131.857C254.952 131.766 252.628 124.096 257.523 120.72L300.904 90.802C303.322 89.1346 306.584 89.4235 308.671 91.4898L344.919 127.379C347.271 129.708 347.34 133.487 345.075 135.901L306.402 177.104C304.186 179.464 300.513 179.687 298.029 177.61L278.435 161.233C275.648 158.904 275.497 154.673 278.109 152.15L287.885 142.712C291.805 138.927 289.184 132.293 283.735 132.209L260.898 131.857Z" stroke="white" stroke-width="1.74545" stroke-miterlimit="10"/>
<path d="M150.635 300C146.037 300 142.422 303.932 142.808 308.514L147.465 363.769C147.979 369.87 154.966 373.063 159.915 369.459L183.821 352.049C186.736 349.926 187.831 346.091 186.476 342.749L171.133 304.904C169.932 301.939 167.053 300 163.854 300H150.635Z" stroke="white" stroke-width="1.74545" stroke-miterlimit="10"/>
<path d="M57.6864 235.416C54.9765 229.166 59.1464 222.09 65.9262 221.433L116.002 216.58C126.071 215.604 131.095 228.453 123.035 234.566L83.7684 264.347C78.5834 268.279 71.0846 266.314 68.4956 260.343L57.6864 235.416Z" fill="#4200FF"/>
<path d="M244.854 47.9389H212.127V97.8109H244.854V47.9389Z" fill="#4200FF"/>
<path d="M76.4183 356.073C76.4183 356.073 27.9819 448.145 67.2546 438.109C106.527 428.073 89.5092 412.8 75.5456 418.473C61.5819 424.145 22.7456 520.582 64.6365 516.655C106.527 512.727 109.582 495.273 90.3819 495.273C71.1819 495.273 45.8728 593.891 92.5637 584.727C139.255 575.564 129.655 537.164 116.564 538.909C103.473 540.655 86.891 598.691 119.618 593.018" stroke="url(#paint3_linear_328_42)" stroke-width="1.74545" stroke-miterlimit="10"/>
<path d="M541.324 122.125C546.888 123.233 608.961 142.263 589.137 192.602C569.313 242.941 533.653 258.969 566.372 295.741C599.09 332.513 604.506 356.727 579.179 361.025" stroke="url(#paint4_linear_328_42)" stroke-width="1.74545" stroke-miterlimit="10"/>
<path d="M60.4866 179.804C73.8175 159.343 89.5789 143.856 107.339 133.767C121.517 125.682 137.363 120.962 153.655 119.974C181.582 118.228 202.091 127.444 202.964 127.828L199.329 135.766L201.148 131.795L199.337 135.766C199.141 135.679 179.653 126.977 153.82 128.697C119.4 130.988 90.456 149.782 67.8 184.551L60.4866 179.804Z" fill="#4200FF"/>
<path d="M469.355 194.849L477.175 200.679L469.612 210.825L415.734 170.666L423.297 160.521L432.168 167.132L475.093 58.2284L544.916 83.6248L469.355 194.849Z" fill="#A180FF"/>
<path d="M501.82 147.168L450.111 121.732" stroke="black" stroke-width="1.74545" stroke-miterlimit="10"/>
<path d="M492.709 160.634L444.251 136.495" stroke="black" stroke-width="1.74545" stroke-miterlimit="10"/>
<defs>
<linearGradient id="paint0_linear_328_42" x1="322.455" y1="61.5273" x2="322.455" y2="551.127" gradientUnits="userSpaceOnUse">
<stop stop-color="#809FFF"/>
<stop offset="1" stop-color="#E180FF"/>
</linearGradient>
<linearGradient id="paint1_linear_328_42" x1="434.427" y1="168.766" x2="434.427" y2="301.527" gradientUnits="userSpaceOnUse">
<stop stop-color="#2400FF"/>
<stop offset="1" stop-color="#C200FF"/>
</linearGradient>
<linearGradient id="paint2_linear_328_42" x1="427.68" y1="183.874" x2="427.68" y2="221.057" gradientUnits="userSpaceOnUse">
<stop stop-color="#2400FF"/>
<stop offset="1" stop-color="#C200FF"/>
</linearGradient>
<linearGradient id="paint3_linear_328_42" x1="85.3344" y1="356.073" x2="85.3344" y2="593.408" gradientUnits="userSpaceOnUse">
<stop stop-color="#809FFF"/>
<stop offset="1" stop-color="#E180FF"/>
</linearGradient>
<linearGradient id="paint4_linear_328_42" x1="567.412" y1="122.125" x2="567.412" y2="361.025" gradientUnits="userSpaceOnUse">
<stop stop-color="#809FFF"/>
<stop offset="1" stop-color="#E180FF"/>
</linearGradient>
</defs>
</svg>
