<svg width="203" height="57" viewBox="0 0 203 57" fill="none" xmlns="http://www.w3.org/2000/svg">
<path d="M69.1417 56.3635C71.0698 56.3635 72.589 54.8444 72.589 52.9747C72.589 51.0465 71.0698 49.5274 69.1417 49.5274C67.272 49.5274 65.7529 51.0465 65.7529 52.9747C65.7529 54.8444 67.272 56.3635 69.1417 56.3635ZM91.329 27.3246C88.6413 27.3246 86.1289 28.0257 83.967 29.3112V24.1695C83.967 22.1829 82.3894 20.6053 80.4029 20.6053C78.4747 20.6053 76.8972 22.1829 76.8972 24.1695V52.6241C76.8972 54.6107 78.4747 56.1882 80.4029 56.1882C81.8052 56.1882 83.0322 55.3702 83.6164 54.1432C85.8367 55.5455 88.466 56.3635 91.329 56.3635C99.3337 56.3635 105.819 49.878 105.819 41.8733C105.819 33.8101 99.3337 27.3246 91.329 27.3246ZM91.329 49.2937C87.5896 49.2937 84.4929 46.4891 83.967 42.925C83.9086 42.5744 83.8502 42.2238 83.8502 41.8733C83.8502 41.4643 83.9086 41.1137 83.967 40.7631C84.4929 37.1406 87.5896 34.3944 91.329 34.3944C95.419 34.3944 98.7494 37.7249 98.7494 41.8733C98.7494 45.9048 95.419 49.2937 91.329 49.2937ZM134.716 26.6234C133.022 26.6234 131.62 27.8504 131.269 29.4864C128.873 27.792 125.952 26.7987 122.797 26.7987C114.792 26.7987 108.307 33.2843 108.307 41.289C108.307 49.2937 114.792 55.8377 122.797 55.8377C125.952 55.8377 128.815 54.8444 131.211 53.15C131.386 54.9612 132.905 56.3635 134.716 56.3635C136.703 56.3635 138.28 54.786 138.28 52.7994V30.1876C138.28 28.2594 136.703 26.6234 134.716 26.6234ZM122.797 48.7678C118.707 48.7678 115.376 45.379 115.376 41.289C115.376 37.199 118.707 33.8686 122.797 33.8686C126.887 33.8686 130.217 37.199 130.217 41.289C130.217 45.379 126.887 48.7678 122.797 48.7678ZM156.519 41.2306L164.465 33.2259C165.867 31.8236 165.809 29.6033 164.465 28.201C163.063 26.8572 160.784 26.8572 159.44 28.2594L150.384 37.3743V24.3447C150.384 22.3582 148.806 20.7806 146.82 20.7806C144.891 20.7806 143.314 22.3582 143.314 24.3447V52.8578C143.314 54.786 144.891 56.3635 146.82 56.3635C148.806 56.3635 150.384 54.786 150.384 52.8578V47.424L151.494 46.3138L158.856 55.0197C159.557 55.8377 160.55 56.3051 161.544 56.3051C162.362 56.3051 163.18 56.013 163.822 55.4287C165.341 54.2017 165.517 51.923 164.29 50.4623L156.519 41.2306ZM192.028 46.606C190.567 45.2621 188.347 45.379 187.061 46.8397C185.601 48.4173 183.614 49.2937 181.511 49.2937C180.517 49.2937 179.582 49.1184 178.706 48.7678L191.677 36.6147C192.378 35.972 192.787 35.0371 192.787 34.0439C192.787 33.109 192.437 32.1741 191.736 31.5314C188.989 28.7853 185.367 27.3246 181.511 27.3246C173.506 27.3246 167.02 33.8101 167.02 41.8148C167.02 49.878 173.506 56.3635 181.511 56.3635C185.601 56.3635 189.515 54.6107 192.261 51.6308C193.605 50.1701 193.488 47.8914 192.028 46.606ZM174.09 41.8148C174.09 37.7249 177.421 34.3944 181.511 34.3944C182.153 34.3944 182.796 34.5113 183.38 34.6281L174.207 43.2756C174.149 42.8081 174.09 42.3407 174.09 41.8148Z" fill="#EEEEEE"/>
<g filter="url(#filter0_di_486_15)">
<path d="M11.3845 51.487L7.54232 34.1972C6.74249 30.598 9.4813 27.1837 13.1683 27.1837H56.4318C60.1189 27.1837 62.8577 30.598 62.0579 34.1972L58.2157 51.487C57.6297 54.1239 55.2909 56 52.5897 56H17.0105C14.3093 56 11.9705 54.1239 11.3845 51.487Z" fill="#FFD6B6"/>
</g>
<g filter="url(#filter1_di_486_15)">
<path d="M12.9674 13.7787C-4.32248 13.7787 -4.3225 39.7133 12.9675 39.7133L56.1919 39.7133C73.4816 39.7133 73.4816 16.6603 59.0747 16.6603C59.0747 -4.95196 33.1388 -3.51113 30.2584 9.45622C24.4938 3.69295 14.4081 6.57458 12.9674 13.7787Z" fill="#EA7362"/>
</g>
<g filter="url(#filter2_i_486_15)">
<path d="M21.6271 44.0615C28.8596 51.1462 38.807 47.5931 43.5422 44.5522C43.7924 44.387 44.0348 44.2231 44.2685 44.0615C44.0427 44.2224 43.8002 44.3865 43.5422 44.5522C36.5624 49.1619 23.4677 54.8797 21.6271 44.0615Z" fill="white"/>
</g>
<defs>
<filter id="filter0_di_486_15" x="7.40271" y="27.1837" width="54.7947" height="29.6485" filterUnits="userSpaceOnUse" color-interpolation-filters="sRGB">
<feFlood flood-opacity="0" result="BackgroundImageFix"/>
<feColorMatrix in="SourceAlpha" type="matrix" values="0 0 0 0 0 0 0 0 0 0 0 0 0 0 0 0 0 0 127 0" result="hardAlpha"/>
<feOffset dy="0.832218"/>
<feComposite in2="hardAlpha" operator="out"/>
<feColorMatrix type="matrix" values="0 0 0 0 0 0 0 0 0 0 0 0 0 0 0 0 0 0 0.25 0"/>
<feBlend mode="normal" in2="BackgroundImageFix" result="effect1_dropShadow_486_15"/>
<feBlend mode="normal" in="SourceGraphic" in2="effect1_dropShadow_486_15" result="shape"/>
<feColorMatrix in="SourceAlpha" type="matrix" values="0 0 0 0 0 0 0 0 0 0 0 0 0 0 0 0 0 0 127 0" result="hardAlpha"/>
<feOffset dy="-1.48111"/>
<feComposite in2="hardAlpha" operator="arithmetic" k2="-1" k3="1"/>
<feColorMatrix type="matrix" values="0 0 0 0 0 0 0 0 0 0 0 0 0 0 0 0 0 0 0.25 0"/>
<feBlend mode="normal" in2="shape" result="effect2_innerShadow_486_15"/>
</filter>
<filter id="filter1_di_486_15" x="0" y="0" width="69.5442" height="40.7119" filterUnits="userSpaceOnUse" color-interpolation-filters="sRGB">
<feFlood flood-opacity="0" result="BackgroundImageFix"/>
<feColorMatrix in="SourceAlpha" type="matrix" values="0 0 0 0 0 0 0 0 0 0 0 0 0 0 0 0 0 0 127 0" result="hardAlpha"/>
<feOffset dy="0.998662"/>
<feComposite in2="hardAlpha" operator="out"/>
<feColorMatrix type="matrix" values="0 0 0 0 0 0 0 0 0 0 0 0 0 0 0 0 0 0 0.25 0"/>
<feBlend mode="normal" in2="BackgroundImageFix" result="effect1_dropShadow_486_15"/>
<feBlend mode="normal" in="SourceGraphic" in2="effect1_dropShadow_486_15" result="shape"/>
<feColorMatrix in="SourceAlpha" type="matrix" values="0 0 0 0 0 0 0 0 0 0 0 0 0 0 0 0 0 0 127 0" result="hardAlpha"/>
<feOffset dy="-1.99732"/>
<feComposite in2="hardAlpha" operator="arithmetic" k2="-1" k3="1"/>
<feColorMatrix type="matrix" values="0 0 0 0 0 0 0 0 0 0 0 0 0 0 0 0 0 0 0.25 0"/>
<feBlend mode="normal" in2="shape" result="effect2_innerShadow_486_15"/>
</filter>
<filter id="filter2_i_486_15" x="21.6271" y="44.0615" width="22.6414" height="6.18738" filterUnits="userSpaceOnUse" color-interpolation-filters="sRGB">
<feFlood flood-opacity="0" result="BackgroundImageFix"/>
<feBlend mode="normal" in="SourceGraphic" in2="BackgroundImageFix" result="shape"/>
<feColorMatrix in="SourceAlpha" type="matrix" values="0 0 0 0 0 0 0 0 0 0 0 0 0 0 0 0 0 0 127 0" result="hardAlpha"/>
<feOffset dx="0.411662" dy="0.823323"/>
<feComposite in2="hardAlpha" operator="arithmetic" k2="-1" k3="1"/>
<feColorMatrix type="matrix" values="0 0 0 0 0 0 0 0 0 0 0 0 0 0 0 0 0 0 0.25 0"/>
<feBlend mode="normal" in2="shape" result="effect1_innerShadow_486_15"/>
</filter>
</defs>
</svg>
