<svg width="25" height="25" viewBox="0 0 25 25" fill="none" xmlns="http://www.w3.org/2000/svg">
<rect y="0.041748" width="23.9983" height="23.9983" rx="4.39969" transform="rotate(-0.0998499 0 0.041748)" fill="#4200FF"/>
<g filter="url(#filter0_di_468_14)">
<path d="M5.24334 18.8345L4.12407 13.8389C3.89107 12.799 4.68099 11.8107 5.74671 11.8089L18.2518 11.7871C19.3175 11.7852 20.1109 12.7707 19.8815 13.8115L18.7797 18.8109C18.6116 19.5734 17.9365 20.1169 17.1558 20.1182L6.87179 20.1362C6.09101 20.1375 5.41404 19.5964 5.24334 18.8345Z" fill="#809FFF"/>
</g>
<g filter="url(#filter1_di_468_14)">
<path d="M5.68175 7.93425C0.684184 7.94296 0.697241 15.4392 5.69484 15.4305L18.1886 15.4088C23.1862 15.4001 23.1745 8.73669 19.0103 8.74395C18.9994 2.49703 11.5035 2.92656 10.6775 6.67616C9.00832 5.01322 6.09455 5.85122 5.68175 7.93425Z" fill="url(#paint0_linear_468_14)"/>
<path d="M5.68175 7.93425C0.684184 7.94296 0.697241 15.4392 5.69484 15.4305L18.1886 15.4088C23.1862 15.4001 23.1745 8.73669 19.0103 8.74395C18.9994 2.49703 11.5035 2.92656 10.6775 6.67616C9.00832 5.01322 6.09455 5.85122 5.68175 7.93425Z" stroke="black"/>
</g>
<g filter="url(#filter2_i_468_14)">
<path d="M8.19995 16.6832C10.294 18.7274 13.1675 17.6954 14.5346 16.814C14.6069 16.7661 14.6769 16.7186 14.7443 16.6718C14.6792 16.7184 14.6091 16.766 14.5346 16.814C12.5195 18.15 8.73743 19.8093 8.19995 16.6832Z" fill="white"/>
</g>
<defs>
<filter id="filter0_di_468_14" x="4.08313" y="11.7871" width="15.8381" height="8.58955" filterUnits="userSpaceOnUse" color-interpolation-filters="sRGB">
<feFlood flood-opacity="0" result="BackgroundImageFix"/>
<feColorMatrix in="SourceAlpha" type="matrix" values="0 0 0 0 0 0 0 0 0 0 0 0 0 0 0 0 0 0 127 0" result="hardAlpha"/>
<feOffset dy="0.240549"/>
<feComposite in2="hardAlpha" operator="out"/>
<feColorMatrix type="matrix" values="0 0 0 0 0 0 0 0 0 0 0 0 0 0 0 0 0 0 0.25 0"/>
<feBlend mode="normal" in2="BackgroundImageFix" result="effect1_dropShadow_468_14"/>
<feBlend mode="normal" in="SourceGraphic" in2="effect1_dropShadow_468_14" result="shape"/>
<feColorMatrix in="SourceAlpha" type="matrix" values="0 0 0 0 0 0 0 0 0 0 0 0 0 0 0 0 0 0 127 0" result="hardAlpha"/>
<feOffset dy="-0.428109"/>
<feComposite in2="hardAlpha" operator="arithmetic" k2="-1" k3="1"/>
<feColorMatrix type="matrix" values="0 0 0 0 0 0 0 0 0 0 0 0 0 0 0 0 0 0 0.25 0"/>
<feBlend mode="normal" in2="shape" result="effect2_innerShadow_468_14"/>
</filter>
<filter id="filter1_di_468_14" x="1.94006" y="3.93591" width="20.1018" height="11.7833" filterUnits="userSpaceOnUse" color-interpolation-filters="sRGB">
<feFlood flood-opacity="0" result="BackgroundImageFix"/>
<feColorMatrix in="SourceAlpha" type="matrix" values="0 0 0 0 0 0 0 0 0 0 0 0 0 0 0 0 0 0 127 0" result="hardAlpha"/>
<feOffset dy="0.288659"/>
<feComposite in2="hardAlpha" operator="out"/>
<feColorMatrix type="matrix" values="0 0 0 0 0 0 0 0 0 0 0 0 0 0 0 0 0 0 0.25 0"/>
<feBlend mode="normal" in2="BackgroundImageFix" result="effect1_dropShadow_468_14"/>
<feBlend mode="normal" in="SourceGraphic" in2="effect1_dropShadow_468_14" result="shape"/>
<feColorMatrix in="SourceAlpha" type="matrix" values="0 0 0 0 0 0 0 0 0 0 0 0 0 0 0 0 0 0 127 0" result="hardAlpha"/>
<feOffset dy="-0.577318"/>
<feComposite in2="hardAlpha" operator="arithmetic" k2="-1" k3="1"/>
<feColorMatrix type="matrix" values="0 0 0 0 0 0 0 0 0 0 0 0 0 0 0 0 0 0 0.25 0"/>
<feBlend mode="normal" in2="shape" result="effect2_innerShadow_468_14"/>
</filter>
<filter id="filter2_i_468_14" x="8.19995" y="16.6719" width="6.54443" height="1.79626" filterUnits="userSpaceOnUse" color-interpolation-filters="sRGB">
<feFlood flood-opacity="0" result="BackgroundImageFix"/>
<feBlend mode="normal" in="SourceGraphic" in2="BackgroundImageFix" result="shape"/>
<feColorMatrix in="SourceAlpha" type="matrix" values="0 0 0 0 0 0 0 0 0 0 0 0 0 0 0 0 0 0 127 0" result="hardAlpha"/>
<feOffset dx="0.118989" dy="0.237978"/>
<feComposite in2="hardAlpha" operator="arithmetic" k2="-1" k3="1"/>
<feColorMatrix type="matrix" values="0 0 0 0 0 0 0 0 0 0 0 0 0 0 0 0 0 0 0.25 0"/>
<feBlend mode="normal" in2="shape" result="effect1_innerShadow_468_14"/>
</filter>
<linearGradient id="paint0_linear_468_14" x1="11.6824" y1="3.94113" x2="11.7024" y2="15.4201" gradientUnits="userSpaceOnUse">
<stop stop-color="#809FFF"/>
<stop offset="1" stop-color="#E180FF"/>
</linearGradient>
</defs>
</svg>
