<svg width="113" height="33" viewBox="0 0 113 33" fill="none" xmlns="http://www.w3.org/2000/svg">
<rect width="32.9176" height="32.893" rx="5.93913" fill="#4200FF"/>
<g filter="url(#filter0_di_409_75)">
<path d="M7.18629 25.7584L5.66297 18.9035C5.34586 17.4765 6.43172 16.1228 7.89353 16.1228H25.0463C26.5081 16.1228 27.594 17.4765 27.2769 18.9035L25.7536 25.7584C25.5212 26.8039 24.594 27.5477 23.523 27.5477H9.41685C8.34589 27.5477 7.41861 26.8039 7.18629 25.7584Z" fill="#809FFF"/>
</g>
<g filter="url(#filter1_di_409_75)">
<path d="M7.81384 10.8081C0.958861 10.8081 0.958853 21.0905 7.81388 21.0905L24.9512 21.0905C31.8061 21.0905 31.8061 11.9506 26.0941 11.9506C26.0941 3.3819 15.8112 3.95315 14.6693 9.09435C12.3837 6.80937 8.38504 7.95186 7.81384 10.8081Z" fill="url(#paint0_linear_409_75)"/>
</g>
<g filter="url(#filter2_i_409_75)">
<path d="M11.2471 22.8146C14.1146 25.6235 18.0584 24.2147 19.9358 23.0091C20.035 22.9436 20.1311 22.8786 20.2238 22.8146C20.1343 22.8783 20.0381 22.9434 19.9358 23.0091C17.1685 24.8367 11.9768 27.1037 11.2471 22.8146Z" fill="white"/>
</g>
<path d="M35.9768 33C37.0931 33 37.9726 32.1205 37.9726 31.038C37.9726 29.9217 37.0931 29.0422 35.9768 29.0422C34.8943 29.0422 34.0148 29.9217 34.0148 31.038C34.0148 32.1205 34.8943 33 35.9768 33ZM48.822 16.188C47.266 16.188 45.8114 16.5939 44.5598 17.3381V14.3613C44.5598 13.2112 43.6465 12.2979 42.4964 12.2979C41.3801 12.2979 40.4668 13.2112 40.4668 14.3613V30.8351C40.4668 31.9852 41.3801 32.8985 42.4964 32.8985C43.3082 32.8985 44.0186 32.4249 44.3569 31.7146C45.6423 32.5264 47.1645 33 48.822 33C53.4563 33 57.2111 29.2452 57.2111 24.6109C57.2111 19.9428 53.4563 16.188 48.822 16.188ZM48.822 28.9069C46.6571 28.9069 44.8643 27.2832 44.5598 25.2198C44.526 25.0168 44.4922 24.8139 44.4922 24.6109C44.4922 24.3741 44.526 24.1712 44.5598 23.9682C44.8643 21.8709 46.6571 20.2811 48.822 20.2811C51.1899 20.2811 53.1181 22.2092 53.1181 24.6109C53.1181 26.945 51.1899 28.9069 48.822 28.9069ZM73.941 15.7821C72.96 15.7821 72.1481 16.4924 71.9452 17.4396C70.5583 16.4586 68.8669 15.8835 67.0403 15.8835C62.406 15.8835 58.6512 19.6383 58.6512 24.2726C58.6512 28.9069 62.406 32.6956 67.0403 32.6956C68.8669 32.6956 70.5244 32.1205 71.9113 31.1395C72.0128 32.1882 72.8923 33 73.941 33C75.0911 33 76.0044 32.0867 76.0044 30.9366V17.8455C76.0044 16.7292 75.0911 15.7821 73.941 15.7821ZM67.0403 28.6025C64.6724 28.6025 62.7442 26.6405 62.7442 24.2726C62.7442 21.9047 64.6724 19.9766 67.0403 19.9766C69.4082 19.9766 71.3363 21.9047 71.3363 24.2726C71.3363 26.6405 69.4082 28.6025 67.0403 28.6025ZM86.5635 24.2388L91.1639 19.6045C91.9758 18.7927 91.942 17.5072 91.1639 16.6954C90.3521 15.9174 89.0328 15.9174 88.2548 16.7292L83.0116 22.0062V14.4628C83.0116 13.3127 82.0983 12.3994 80.9482 12.3994C79.8319 12.3994 78.9186 13.3127 78.9186 14.4628V30.9704C78.9186 32.0867 79.8319 33 80.9482 33C82.0983 33 83.0116 32.0867 83.0116 30.9704V27.8245L83.6543 27.1818L87.9165 32.222C88.3225 32.6956 88.8975 32.9662 89.4726 32.9662C89.9462 32.9662 90.4197 32.797 90.7918 32.4588C91.6713 31.7484 91.7728 30.4291 91.0624 29.5835L86.5635 24.2388ZM107.121 27.3509C106.276 26.5729 104.99 26.6405 104.246 27.4862C103.4 28.3995 102.25 28.9069 101.032 28.9069C100.457 28.9069 99.9161 28.8055 99.4087 28.6025L106.918 21.5665C107.324 21.1944 107.561 20.6531 107.561 20.0781C107.561 19.5369 107.358 18.9956 106.952 18.6235C105.362 17.0337 103.265 16.188 101.032 16.188C96.3981 16.188 92.6433 19.9428 92.6433 24.5771C92.6433 29.2452 96.3981 33 101.032 33C103.4 33 105.667 31.9852 107.257 30.26C108.035 29.4143 107.967 28.0951 107.121 27.3509ZM96.7364 24.5771C96.7364 22.2092 98.6645 20.2811 101.032 20.2811C101.405 20.2811 101.777 20.3487 102.115 20.4164L96.8041 25.4228C96.7702 25.1521 96.7364 24.8815 96.7364 24.5771Z" fill="#EEEEEE"/>
<defs>
<filter id="filter0_di_409_75" x="5.60767" y="16.1228" width="21.7246" height="11.7549" filterUnits="userSpaceOnUse" color-interpolation-filters="sRGB">
<feFlood flood-opacity="0" result="BackgroundImageFix"/>
<feColorMatrix in="SourceAlpha" type="matrix" values="0 0 0 0 0 0 0 0 0 0 0 0 0 0 0 0 0 0 127 0" result="hardAlpha"/>
<feOffset dy="0.329952"/>
<feComposite in2="hardAlpha" operator="out"/>
<feColorMatrix type="matrix" values="0 0 0 0 0 0 0 0 0 0 0 0 0 0 0 0 0 0 0.25 0"/>
<feBlend mode="normal" in2="BackgroundImageFix" result="effect1_dropShadow_409_75"/>
<feBlend mode="normal" in="SourceGraphic" in2="effect1_dropShadow_409_75" result="shape"/>
<feColorMatrix in="SourceAlpha" type="matrix" values="0 0 0 0 0 0 0 0 0 0 0 0 0 0 0 0 0 0 127 0" result="hardAlpha"/>
<feOffset dy="-0.58722"/>
<feComposite in2="hardAlpha" operator="arithmetic" k2="-1" k3="1"/>
<feColorMatrix type="matrix" values="0 0 0 0 0 0 0 0 0 0 0 0 0 0 0 0 0 0 0.25 0"/>
<feBlend mode="normal" in2="shape" result="effect2_innerShadow_409_75"/>
</filter>
<filter id="filter1_di_409_75" x="2.67261" y="5.34521" width="27.5724" height="16.1412" filterUnits="userSpaceOnUse" color-interpolation-filters="sRGB">
<feFlood flood-opacity="0" result="BackgroundImageFix"/>
<feColorMatrix in="SourceAlpha" type="matrix" values="0 0 0 0 0 0 0 0 0 0 0 0 0 0 0 0 0 0 127 0" result="hardAlpha"/>
<feOffset dy="0.395942"/>
<feComposite in2="hardAlpha" operator="out"/>
<feColorMatrix type="matrix" values="0 0 0 0 0 0 0 0 0 0 0 0 0 0 0 0 0 0 0.25 0"/>
<feBlend mode="normal" in2="BackgroundImageFix" result="effect1_dropShadow_409_75"/>
<feBlend mode="normal" in="SourceGraphic" in2="effect1_dropShadow_409_75" result="shape"/>
<feColorMatrix in="SourceAlpha" type="matrix" values="0 0 0 0 0 0 0 0 0 0 0 0 0 0 0 0 0 0 127 0" result="hardAlpha"/>
<feOffset dy="-0.791885"/>
<feComposite in2="hardAlpha" operator="arithmetic" k2="-1" k3="1"/>
<feColorMatrix type="matrix" values="0 0 0 0 0 0 0 0 0 0 0 0 0 0 0 0 0 0 0.25 0"/>
<feBlend mode="normal" in2="shape" result="effect2_innerShadow_409_75"/>
</filter>
<filter id="filter2_i_409_75" x="11.2471" y="22.8146" width="8.97668" height="2.45312" filterUnits="userSpaceOnUse" color-interpolation-filters="sRGB">
<feFlood flood-opacity="0" result="BackgroundImageFix"/>
<feBlend mode="normal" in="SourceGraphic" in2="BackgroundImageFix" result="shape"/>
<feColorMatrix in="SourceAlpha" type="matrix" values="0 0 0 0 0 0 0 0 0 0 0 0 0 0 0 0 0 0 127 0" result="hardAlpha"/>
<feOffset dx="0.163213" dy="0.326425"/>
<feComposite in2="hardAlpha" operator="arithmetic" k2="-1" k3="1"/>
<feColorMatrix type="matrix" values="0 0 0 0 0 0 0 0 0 0 0 0 0 0 0 0 0 0 0.25 0"/>
<feBlend mode="normal" in2="shape" result="effect1_innerShadow_409_75"/>
</filter>
<linearGradient id="paint0_linear_409_75" x1="16.0543" y1="5.34521" x2="16.0543" y2="21.0905" gradientUnits="userSpaceOnUse">
<stop stop-color="#809FFF"/>
<stop offset="1" stop-color="#E180FF"/>
</linearGradient>
</defs>
</svg>
