<svg width="641" height="553" viewBox="0 0 641 553" fill="none" xmlns="http://www.w3.org/2000/svg">
<path d="M455.321 374.029V541.411H269.7V374.029C269.69 363.853 271.359 353.746 274.641 344.114L196.801 283.081C192.278 279.543 188.913 274.736 187.138 269.275C184.802 265.67 183.302 261.588 182.75 257.328L167.295 139.548C166.291 131.921 168.359 124.208 173.042 118.105C177.725 112.002 184.641 108.009 192.268 107.005C193.53 106.836 194.802 106.751 196.076 106.751C203.111 106.76 209.904 109.325 215.188 113.97C220.473 118.614 223.89 125.021 224.802 131.997L239.306 242.706L309.558 297.775C323.481 288.117 339.781 282.455 356.693 281.402C373.605 280.349 390.482 283.945 405.495 291.802C420.508 299.658 433.083 311.474 441.859 325.969C450.634 340.464 455.274 357.084 455.276 374.029H455.321Z" fill="#EEEEEE" stroke="#1700A2" stroke-width="1.66793" stroke-miterlimit="10"/>
<path d="M356.243 252.279L356.233 252.28C349.243 252.783 343.984 258.859 344.487 265.849L346.798 297.928C347.302 304.919 353.377 310.178 360.368 309.675L360.377 309.674C367.368 309.17 372.627 303.095 372.123 296.104L369.812 264.025C369.309 257.034 363.233 251.775 356.243 252.279Z" fill="#EEEEEE" stroke="#1700A2" stroke-width="1.77671" stroke-miterlimit="10"/>
<path d="M344.757 282.093L358.563 310.738L339.201 303.169L342.799 297.05L330.344 286.952L344.757 282.093Z" fill="#1700A2"/>
<path d="M396.536 195.143C396.536 195.143 357.076 122.624 278.466 239.561L331.251 264.825C331.251 264.825 379.557 177.557 396.536 195.143Z" fill="#E180FF"/>
<path d="M330.235 239.887C330.235 239.887 320.083 260.047 278.466 239.551L331.251 264.815L337.678 254.898" fill="#1700A2"/>
<path d="M391.108 238.386C404.152 218.186 403.01 194.246 388.559 184.915C374.108 175.584 351.819 184.395 338.776 204.596C325.732 224.796 326.874 248.736 341.325 258.067C355.776 267.398 378.065 258.587 391.108 238.386Z" fill="#EEEEEE" stroke="#1700A2" stroke-width="1.77671" stroke-miterlimit="10"/>
<path d="M365.226 235.935C365.226 235.935 353.441 250.973 339.201 236.723" stroke="#1700A2" stroke-width="1.77671" stroke-miterlimit="10" stroke-linecap="round"/>
<path d="M349.589 197.164C351.396 197.164 352.861 195.699 352.861 193.892C352.861 192.084 351.396 190.619 349.589 190.619C347.782 190.619 346.316 192.084 346.316 193.892C346.316 195.699 347.782 197.164 349.589 197.164Z" fill="#1700A2"/>
<path d="M362.379 211.323C364.187 211.323 365.652 209.858 365.652 208.051C365.652 206.244 364.187 204.779 362.379 204.779C360.572 204.779 359.107 206.244 359.107 208.051C359.107 209.858 360.572 211.323 362.379 211.323Z" fill="#1700A2"/>
<path d="M371.698 219.899C371.698 219.899 378.37 202.44 366.594 196.974" stroke="#1700A2" stroke-width="1.77671" stroke-miterlimit="10" stroke-linecap="round"/>
<path d="M361.636 188.58C361.636 188.58 351.919 195.17 348.374 180.848" stroke="#1700A2" stroke-width="1.77671" stroke-miterlimit="10" stroke-linecap="round"/>
<path d="M399.291 279.192L346.57 259.685C346.57 259.685 392.692 192.061 374.825 175.835C374.825 175.835 453.862 209.193 399.291 279.192Z" fill="#E180FF"/>
<path d="M357.521 200.328L342.047 218.793L349.081 223.307L357.521 200.328Z" fill="#E180FF"/>
<path d="M365.758 221.844C366.107 220.894 364.309 219.361 361.743 218.419C359.177 217.477 356.814 217.483 356.466 218.432C356.117 219.382 357.915 220.915 360.481 221.857C363.047 222.799 365.41 222.793 365.758 221.844Z" fill="#E180FF"/>
<path d="M343.24 208.611C343.414 208.131 342.052 207.198 340.197 206.527C338.343 205.856 336.699 205.702 336.526 206.182C336.352 206.662 337.715 207.595 339.569 208.265C341.423 208.936 343.067 209.091 343.24 208.611Z" fill="#E180FF"/>
<path d="M179.016 67.8088C180.098 67.6674 181.197 67.8864 182.142 68.4321C183.088 68.9777 183.827 69.8195 184.246 70.8274C184.808 70.628 185.379 70.4467 185.95 70.2745L185.832 69.368C185.703 68.079 186.08 66.7901 186.884 65.7743C187.688 64.7585 188.856 64.0956 190.14 63.9259C191.424 63.7562 192.724 64.0931 193.764 64.8653C194.805 65.6374 195.504 66.7842 195.713 68.0626L195.858 69.1504H196.148L195.659 65.4701C195.486 64.1586 195.841 62.8321 196.645 61.7824C197.45 60.7326 198.639 60.0456 199.951 59.8725C201.262 59.6994 202.589 60.0544 203.639 60.8594C204.688 61.6643 205.375 62.8533 205.548 64.1648L206.546 71.752C207.117 72.0149 207.67 72.2869 208.204 72.586L207.343 50.8304C207.282 49.2677 207.844 47.7446 208.906 46.5963C209.967 45.4479 211.442 44.7684 213.004 44.7071C214.567 44.6457 216.09 45.2077 217.238 46.2694C218.387 47.331 219.066 48.8054 219.128 50.368L220.315 80.2821C220.359 81.377 220.099 82.4628 219.563 83.4185C222.443 88.2371 223.886 93.7782 223.723 99.3895C223.56 105.001 221.797 110.449 218.641 115.092C215.486 119.735 211.07 123.38 205.913 125.597C200.756 127.815 195.073 128.513 189.532 127.61C183.992 126.706 178.825 124.238 174.64 120.497C170.454 116.755 167.425 111.896 165.909 106.491C164.393 101.086 164.452 95.3604 166.08 89.9881C167.708 84.6157 170.838 79.8204 175.1 76.1666L174.737 73.3837C174.57 72.0778 174.925 70.7587 175.727 69.7143C176.529 68.6698 177.711 67.9848 179.016 67.8088Z" fill="#EEEEEE" stroke="#1700A2" stroke-width="1.77671" stroke-miterlimit="10"/>
<path d="M230.633 106.083L158.322 104.492L157.423 145.392L229.734 146.982L230.633 106.083Z" fill="#809FFF"/>
<path d="M212.9 126.731C214.903 126.731 216.526 125.107 216.526 123.105C216.526 121.102 214.903 119.479 212.9 119.479C210.897 119.479 209.274 121.102 209.274 123.105C209.274 125.107 210.897 126.731 212.9 126.731Z" fill="#EEEEEE" stroke="#1700A2" stroke-width="1.77671" stroke-miterlimit="10"/>
<path d="M168.083 145.604L228.346 147.135L230.567 175.835L168.083 145.604Z" fill="#1700A2"/>
<path d="M25.7107 36.3084C25.7107 36.3084 82.2663 42.2731 127.391 26.1196C172.516 9.96599 217.65 23.1282 271.305 41.9559C324.96 60.7836 406.425 47.0684 443.8 30.3982C481.174 13.7279 312.731 27.8328 258.152 8.04424C203.572 -11.7443 -36.4016 22.1945 25.7107 36.3084Z" fill="#EEEEEE" stroke="#1700A2" stroke-width="2.42938" stroke-miterlimit="10"/>
<path d="M560.582 222.374C555.74 224.765 550.416 226.023 545.016 226.052C539.615 226.081 534.278 224.881 529.41 222.541C524.542 220.202 520.27 216.785 516.918 212.55C513.566 208.315 511.222 203.373 510.064 198.098L420.703 242.198L386.619 173.179L475.844 129.16C474.216 127.136 472.818 124.938 471.674 122.606C469.276 117.739 468.023 112.388 468.01 106.962C467.997 101.536 469.225 96.1791 471.6 91.3006C473.975 86.4221 477.434 82.1512 481.712 78.8144C485.991 75.4776 490.976 73.1632 496.286 72.0483C501.596 70.9333 507.09 71.0473 512.35 72.3815C517.609 73.7157 522.493 76.2347 526.63 79.7461C530.766 83.2574 534.045 87.6681 536.216 92.6409C538.386 97.6137 539.391 103.017 539.153 108.438C544.162 109.913 548.785 112.472 552.694 115.933C556.603 119.394 559.703 123.673 561.774 128.466C563.845 133.259 564.836 138.45 564.677 143.669C564.518 148.887 563.213 154.008 560.854 158.666C566.76 161.647 571.718 166.214 575.172 171.855C578.627 177.497 580.442 183.989 580.414 190.604C580.386 197.219 578.515 203.695 575.013 209.307C571.51 214.918 566.513 219.443 560.582 222.374Z" fill="#EEEEEE" stroke="#1700A2" stroke-width="1.66793" stroke-miterlimit="10"/>
<path d="M488.044 139.567L487.526 138.519C486.432 136.301 483.747 135.39 481.529 136.484L395.732 178.813C393.515 179.907 392.604 182.592 393.698 184.81L394.215 185.859C395.309 188.077 397.994 188.988 400.212 187.893L486.009 145.565C488.227 144.47 489.138 141.785 488.044 139.567Z" fill="#EEEEEE" stroke="#1700A2" stroke-width="1.03339" stroke-miterlimit="10"/>
<path d="M503.799 159.082L503.282 158.033C502.187 155.816 499.502 154.905 497.284 155.999L411.488 198.328C409.27 199.422 408.359 202.107 409.453 204.325L409.97 205.374C411.065 207.592 413.75 208.502 415.968 207.408L501.764 165.079C503.982 163.985 504.893 161.3 503.799 159.082Z" fill="#EEEEEE" stroke="#1700A2" stroke-width="1.03339" stroke-miterlimit="10"/>
<path d="M509.489 182.955L508.972 181.907C507.877 179.689 505.192 178.778 502.974 179.872L417.178 222.201C414.96 223.295 414.049 225.98 415.143 228.198L415.66 229.247C416.755 231.465 419.44 232.376 421.658 231.282L507.454 188.953C509.672 187.858 510.583 185.173 509.489 182.955Z" fill="#EEEEEE" stroke="#1700A2" stroke-width="1.03339" stroke-miterlimit="10"/>
<path d="M439.046 248.374L393.015 155.073L373.602 164.651L419.633 257.951L439.046 248.374Z" fill="#EEEEEE" stroke="#1700A2" stroke-width="1.66793" stroke-miterlimit="10"/>
<path d="M419.995 209.81C419.995 209.81 424.673 234.666 401.666 221.522L419.642 257.953L439.059 248.381L419.995 209.81Z" fill="#1700A2"/>
<path d="M404.295 177.992C404.295 177.992 479.135 149.402 487.511 138.524C487.511 138.524 490.049 143.564 485.988 145.567L408.03 184.002L404.295 177.992Z" fill="#1700A2"/>
<path d="M416.315 202.358C416.315 202.358 498.805 164.15 502.912 157.451C502.912 157.451 505.876 162.509 502.912 164.24C499.948 165.972 418.092 205.939 418.092 205.939L416.315 202.358Z" fill="#1700A2"/>
<path d="M427.383 223.325C427.383 223.325 504.598 189.849 508.314 180.956C508.314 180.956 512.194 185.28 508.314 188.371C504.435 191.462 444.09 220.162 444.09 220.162L428.027 227.939L427.383 223.325Z" fill="#1700A2"/>
<path d="M556.675 120.032C556.675 120.032 572.004 142.694 560.056 159.011C557.414 161.671 553.926 163.329 550.194 163.697C550.194 163.697 568.133 147.643 556.675 120.032Z" fill="#1700A2"/>
<path d="M522.075 76.4295C522.637 76.783 540.757 89.3922 539.153 108.437C537.549 127.483 534.013 128.779 534.013 128.779C534.013 128.779 541.165 91.7762 522.084 75.6227" fill="#1700A2"/>
<path d="M510.037 197.273C510.037 197.273 527.867 227.967 551.128 214.723C574.388 201.479 576.373 173.976 576.373 173.976C576.373 173.976 582.719 188.199 579.347 199.113C575.974 210.027 571.37 214.913 563.429 220.796C555.488 226.679 530.886 233.007 514.352 208.84C514.352 208.84 510.019 196.448 510.037 197.273Z" fill="#1700A2"/>
<path d="M429.912 227.06L510.064 198.098L433.04 236.043L428.027 227.967L430.293 226.181" fill="#1700A2"/>
<path d="M370.084 174.212L372.777 164.313L380.491 178.663L370.084 174.212Z" fill="#1700A2"/>
<path d="M418.092 238.899C418.092 238.899 416.152 258.887 399.291 279.192L346.597 259.694C348.456 259.92 404.15 266.039 380.01 177.811L413.614 245.861C415.377 243.726 416.881 241.389 418.092 238.899Z" fill="#1700A2"/>
<path d="M359.723 308.027V541.411" stroke="#1700A2" stroke-width="1.66793" stroke-miterlimit="10"/>
<path d="M369.613 446.022L371.154 465.964C371.447 469.893 370.172 473.778 367.609 476.769C365.046 479.76 361.402 481.615 357.475 481.928L268.803 488.772C265.234 489.569 261.557 489.759 257.925 489.334" stroke="#1700A2" stroke-width="1.77671" stroke-miterlimit="10"/>
<path d="M446.991 327.172C446.991 327.807 446.991 328.442 446.927 329.085L438.769 453.754C438.274 461.313 434.841 468.378 429.206 473.439C423.57 478.501 416.178 481.157 408.61 480.84L294.012 490.866C290.217 491.198 286.394 490.779 282.76 489.634C279.127 488.489 275.755 486.639 272.837 484.19C269.918 481.742 267.511 478.742 265.752 475.363C263.993 471.984 262.916 468.291 262.584 464.496C262.512 463.635 262.476 462.783 262.476 461.931C262.484 454.681 265.207 447.698 270.108 442.355C275.009 437.013 281.732 433.7 288.954 433.068L382.54 424.91L389.039 325.314C389.536 317.808 392.929 310.789 398.503 305.738C404.077 300.686 411.395 297.997 418.913 298.238C426.431 298.479 433.562 301.632 438.8 307.03C444.039 312.428 446.976 319.65 446.991 327.172Z" fill="#EEEEEE" stroke="#1700A2" stroke-width="1.66793" stroke-miterlimit="10"/>
<path d="M455.013 375.923V540.904L269.419 540.478V499.006L299.424 500.964L300.14 490.295L406.38 481.039C440.999 481.085 439.222 447.082 439.222 447.082L447.036 336.89C454.469 347.877 455.013 375.923 455.013 375.923Z" fill="#1700A2"/>
<path d="M306.83 431.509L382.53 424.883L387.897 342.728C387.897 342.728 376.285 424.674 306.83 431.509Z" fill="#1700A2"/>
<path d="M382.531 424.892L407.622 438.879L383.791 405.71L382.703 422.299" fill="#1700A2"/>
<path d="M441.724 411.874L439.005 460.272C439.005 460.272 439.422 487.91 403.96 485.871C368.498 483.831 304.772 500.936 304.772 500.936L305.099 490.331H300.14L304.473 431.717L321.805 430.203L318.179 446.312C331.604 456.283 358.273 468.212 404.712 460.444C404.712 460.444 421.509 460.262 423.123 451.252C424.736 442.242 439.92 309.559 423.123 298.645C423.812 298.863 445.785 306.106 447.063 319.494L441.724 411.874Z" fill="#1700A2"/>
<path d="M256.973 435.189C256.973 435.189 248.452 479.136 225.6 478.601L230.359 480.912L223.433 483.568L207.588 484.167C207.588 484.167 203.055 486.696 206.609 492.325L214.722 493.395L229.09 492.552L241.708 485.49L257.943 489.388L260.282 489.751L262.548 437.582L256.973 435.189Z" fill="#1700A2"/>
<path d="M177.583 484.121C177.583 484.121 193.565 482.771 213.435 470.007L183.82 491.255C183.82 491.255 178.725 493.594 177.583 488.581C176.441 483.568 177.583 484.121 177.583 484.121Z" fill="#1700A2"/>
<path d="M172.072 472.265C172.072 472.265 191.017 469.192 205.05 459.746L177.076 480.024C177.076 480.024 169.008 479.371 169.171 474.531C169.334 469.69 169.978 474.368 169.978 474.368C169.978 474.368 171.174 472.428 172.072 472.265Z" fill="#1700A2"/>
<path d="M175.09 452.077L207.778 446.293L181.535 456.219C181.535 456.219 175.353 456.446 175.09 452.077Z" fill="#1700A2"/>
<path d="M262.661 425.16L257.807 499.406L300.358 502.187L305.211 427.941L262.661 425.16Z" fill="#809FFF"/>
<path d="M238.463 235.935L218.656 256.131L233.894 249.242V256.131L241.808 244.637L240.412 242.86L238.463 235.935Z" fill="#1700A2"/>
<path d="M170.232 146.637C170.232 146.637 181.381 249.26 210.117 279.192C238.853 309.124 274.613 344.088 274.613 344.088C274.613 344.088 198.65 284.667 196.801 283.081C194.951 281.495 188.008 271.596 188.008 271.596L184.763 264.815L182.469 255.352L168.056 145.604L170.232 146.637Z" fill="#1700A2"/>
<path d="M270.516 376.077C270.725 376.984 283.207 350.061 283.207 350.061L274.659 344.051C274.659 344.051 267.769 364.157 270.516 376.077Z" fill="#1700A2"/>
<path d="M1 539.843H638.694C638.694 542.987 637.445 546.003 635.221 548.227C632.998 550.45 629.982 551.7 626.837 551.7H12.875C11.3164 551.702 9.77261 551.397 8.33198 550.802C6.89135 550.207 5.58211 549.334 4.47918 548.233C3.37626 547.132 2.50127 545.824 1.90427 544.384C1.30728 542.945 0.999998 541.401 1 539.843Z" fill="#EEEEEE" stroke="#1700A2" stroke-width="0.852096" stroke-miterlimit="10"/>
<path d="M2.61354 545.771H637.09C638.123 543.965 638.676 541.924 638.694 539.843H1C1 539.843 1.65267 544.076 2.61354 545.771Z" fill="#1700A2"/>
<path d="M158.357 104.476C158.357 104.476 154.939 148.495 229.77 146.954L157.459 145.368L158.357 104.476Z" fill="#1700A2"/>
<path d="M223.533 101.965H222.626V105.881L165.663 104.63C165.168 102.473 164.973 100.259 165.083 98.0489H165.246C164.805 96.2294 164.733 94.34 165.033 92.4921C165.334 90.6441 166.001 88.875 166.995 87.2889L175.045 76.1754L179.84 86.3462C179.84 86.3462 188.271 87.6062 189.531 84.3429L191.471 79.6926L211.341 81.5962L225.845 98.0398L223.533 101.965Z" fill="#1700A2"/>
<path d="M207.878 64.3368C207.878 64.3368 217.496 76.4112 219.853 68.9236L220.306 80.7079L214.795 77.082L211.25 76.5018L210.144 76.2118L207.679 70.5915V65.9685L207.878 64.3368Z" fill="#1700A2"/>
<path d="M140.472 380.818H28.6749V537.785H140.472V380.818Z" fill="#809FFF"/>
<path d="M140.463 382.142H53.8752V538.692H140.463V382.142Z" fill="#EEEEEE" stroke="#1700A2" stroke-width="1.69513" stroke-miterlimit="10"/>
<path d="M53.8753 385.994C53.8753 385.994 60.3385 532.645 140.463 536.38L141.759 541.166L52.579 538.673L53.8753 385.994Z" fill="#1700A2" stroke="#1700A2" stroke-width="0.906485" stroke-miterlimit="10"/>
<path d="M640.77 456.446C640.77 478.564 631.984 499.777 616.344 515.417C600.704 531.056 579.492 539.843 557.373 539.843C535.255 539.843 514.043 531.056 498.403 515.417C482.763 499.777 473.977 478.564 473.977 456.446C473.977 455.232 473.977 454.026 474.058 452.82H640.688C640.743 454.035 640.77 455.232 640.77 456.446Z" fill="#EEEEEE" stroke="#1700A2" stroke-width="1.6498" stroke-miterlimit="10"/>
<path d="M606.251 452.82C606.251 452.82 605.435 521.577 557.11 539.127C556.449 539.362 555.778 539.598 555.107 539.816C555.107 539.816 587.287 539.988 603.604 525.865C619.921 511.742 639.863 499.958 640.77 452.82H606.251Z" fill="#1700A2"/>
<path d="M482.135 465.511C482.135 465.511 487.574 513.555 543.776 527.152" stroke="#1700A2" stroke-width="0.906485" stroke-miterlimit="10"/>
<path d="M62.7588 14.9786C62.7588 14.9786 86.0192 34.8669 127.391 26.1193C127.391 26.1193 94.3679 38.9189 74.0536 36.5439C53.7393 34.1689 22.5018 42.8259 16.1473 29.292C16.1473 29.292 35.0022 19.4385 62.7588 14.9786Z" fill="#1700A2"/>
<path d="M384.226 20.3634C384.226 20.3634 375.079 47.4492 314.426 50.3409C314.426 50.3409 359.279 51.3108 380.718 47.3495C402.156 43.3881 439.041 32.4106 439.041 32.4106L449.175 25.4488C449.175 25.4488 417.131 19.8286 384.226 20.3634Z" fill="#1700A2"/>
<path d="M414.838 298.183C414.838 298.183 392.302 302.924 390.408 318.126L368.453 309.061L358.563 310.647L359.016 309.577C358.152 309.622 357.289 309.476 356.487 309.151L348.329 292.998C361.255 303.975 357.548 261.271 357.548 261.271L371.326 264.761V280.896H371.39H371.48L372.595 281.159L372.985 281.25H373.094C376.611 282.156 384.878 284.25 393.345 287.196C401.811 290.142 410.632 294.04 414.838 298.183Z" fill="#1700A2"/>
<path d="M279.554 448.215C281.556 448.215 283.18 446.592 283.18 444.589C283.18 442.587 281.556 440.963 279.554 440.963C277.551 440.963 275.928 442.587 275.928 444.589C275.928 446.592 277.551 448.215 279.554 448.215Z" fill="#EEEEEE" stroke="#1700A2" stroke-width="1.77671" stroke-miterlimit="10"/>
<path d="M261.759 449.602C261.759 449.602 263.228 495.362 299.397 500.937L258.605 498.271L261.759 449.602Z" fill="#1700A2"/>
<path d="M178.382 65.8314L178.053 65.932C175.271 66.7815 173.704 69.7253 174.554 72.5072L179.925 90.098C180.774 92.8799 183.718 94.4464 186.5 93.597L186.83 93.4964C189.612 92.6469 191.178 89.7032 190.329 86.9212L184.957 69.3304C184.108 66.5485 181.164 64.982 178.382 65.8314Z" fill="#EEEEEE" stroke="#1700A2" stroke-width="1.70419" stroke-miterlimit="10"/>
<path d="M188.653 63.0021L188.35 63.0948C185.764 63.8843 184.308 66.6204 185.098 69.2059L190.09 85.557C190.88 88.1426 193.616 89.5986 196.202 88.809L196.505 88.7164C199.091 87.9269 200.547 85.1908 199.757 82.6052L194.764 66.2542C193.975 63.6686 191.239 62.2126 188.653 63.0021Z" fill="#EEEEEE" stroke="#1700A2" stroke-width="1.58635" stroke-miterlimit="10"/>
<path d="M199.049 59.3223L198.737 59.4176C196.113 60.2188 194.636 62.9954 195.437 65.6193L200.504 82.213C201.305 84.8369 204.082 86.3145 206.706 85.5133L207.018 85.418C209.642 84.6168 211.119 81.8402 210.318 79.2163L205.251 62.6225C204.45 59.9986 201.673 58.5211 199.049 59.3223Z" fill="#EEEEEE" stroke="#1700A2" stroke-width="1.60448" stroke-miterlimit="10"/>
<path d="M228.129 95.9734L226.969 97.1699C226.533 97.6214 226.012 97.9825 225.437 98.2324C224.861 98.4823 224.242 98.6161 223.615 98.6262C222.987 98.6363 222.364 98.5225 221.781 98.2913C221.197 98.06 220.665 97.7159 220.215 97.2787L209.909 87.3074L194.834 85.2043C194.227 85.1209 193.643 84.9185 193.115 84.6089C192.587 84.2992 192.126 83.8884 191.757 83.3999C191.388 82.9115 191.119 82.355 190.966 81.7624C190.812 81.1698 190.778 80.5528 190.863 79.9467L191.126 78.0612C191.21 77.4548 191.412 76.8709 191.722 76.3429C192.031 75.8149 192.442 75.3532 192.931 74.9843C193.419 74.6155 193.976 74.3467 194.568 74.1933C195.161 74.04 195.778 74.0051 196.384 74.0908L211.921 76.2573C212.648 76.1452 213.392 76.2031 214.094 76.4265C214.795 76.6498 215.435 77.0325 215.964 77.5445L228.02 89.2291C228.47 89.6647 228.83 90.1847 229.079 90.7595C229.328 91.3342 229.462 91.9524 229.472 92.5787C229.482 93.205 229.369 93.8272 229.138 94.4096C228.908 94.9921 228.565 95.5235 228.129 95.9734Z" fill="#EEEEEE" stroke="#1700A2" stroke-width="1.5229" stroke-miterlimit="10"/>
</svg>
