<svg width="258" height="69" viewBox="0 0 258 69" fill="none" xmlns="http://www.w3.org/2000/svg">
<g filter="url(#filter0_d_514_3)">
<rect x="4" width="250" height="61.4754" rx="16.3934" fill="#EA7362" shape-rendering="crispEdges"/>
<path d="M62.7525 37.4C63.9066 38.2655 65.2967 38.7377 66.7656 38.7377C67.0016 38.7377 67.2377 38.7377 67.4475 38.7114C68.759 38.5803 69.9656 38.1082 70.9361 37.3213C71.2246 37.0852 71.5131 36.8229 71.7754 36.5344C72.8508 35.3016 73.3492 33.7541 73.1656 32.1803C72.7459 28.4032 69.4672 27.3803 67.5 26.7508C67.0279 26.6196 66.6082 26.4885 66.2672 26.3311C64.3525 25.4131 64.4311 24.4164 64.6934 23.6557C65.1393 22.4754 66.5033 22.1344 67.6311 22.3967C67.6574 22.3967 68.9689 22.7901 69.2836 23.9967C69.3361 24.259 69.5459 24.4426 69.8344 24.4426L71.4607 24.4164C71.7754 24.3901 72.0377 24.1016 71.9852 23.7868C71.6967 22.0557 70.4377 20.9016 69.2836 20.3246C68.9426 20.1672 68.6016 20.036 68.2869 19.9573C66.9492 19.6426 65.6115 19.8 64.4836 20.3246C63.4082 20.8491 62.5426 21.7147 62.123 22.8426C61.2836 25.177 62.3328 27.2754 65.0344 28.5606C65.5066 28.7705 66.0574 28.9541 66.6344 29.1377C68.8115 29.8196 70.2541 30.4229 70.4902 32.4426C70.5689 33.3606 70.2803 34.2524 69.677 34.9606C69.0475 35.6688 68.1557 36.1147 67.159 36.2196C66.1885 36.2983 65.218 36.036 64.4311 35.459C63.8016 34.9869 63.3557 34.3311 63.1721 33.6229C63.0934 33.3606 62.8574 33.177 62.5951 33.2032L60.9689 33.3606C60.6541 33.3869 60.418 33.7016 60.4967 34.0164C60.7852 35.3278 61.5459 36.4557 62.6475 37.3213C62.6738 37.3475 62.7 37.3737 62.7525 37.4ZM79.8416 34.8032H86.3203C86.4514 34.8032 86.5564 34.8819 86.6088 34.9869L88.1564 38.5541C88.2088 38.659 88.3137 38.7377 88.4449 38.7377H90.7006C90.9367 38.7377 91.0941 38.5016 90.9891 38.2918L83.4613 20.9278C83.3301 20.6655 82.9891 20.6655 82.858 20.9278L75.1203 38.2918C75.0154 38.5016 75.1727 38.7377 75.4088 38.7377H77.6646C77.7957 38.7377 77.9006 38.659 77.9531 38.5541L79.5531 34.9869C79.6055 34.8819 79.7105 34.8032 79.8416 34.8032ZM83.4088 27.6426L85.1662 31.6557C85.2449 31.8655 85.0875 32.1016 84.8514 32.1016H81.3367C81.1006 32.1016 80.9432 31.8655 81.0482 31.6557L82.8318 27.6426C82.9367 27.4065 83.3039 27.4065 83.4088 27.6426ZM97.2266 20.9016C97.2266 20.6131 96.9906 20.377 96.6758 20.377H95.0496C94.7611 20.377 94.525 20.6131 94.525 20.9016V38.1869C94.525 38.4754 94.7611 38.7377 95.0496 38.7377H96.6758C96.9906 38.7377 97.2266 38.4754 97.2266 38.1869V20.9016ZM110.178 38.5016C112.486 37.9246 114.218 35.9049 114.218 33.4655C114.218 31.8131 113.431 30.3442 112.198 29.3737C111.962 29.1901 111.909 28.8754 112.093 28.6393C112.723 27.8 113.09 26.7508 113.09 25.6229C113.09 23.2098 111.411 21.2164 109.129 20.5868C108.683 20.4819 108.211 20.4032 107.739 20.4032H101.339C101.05 20.4032 100.814 20.6393 100.814 20.9278V38.1606C100.814 38.4491 101.05 38.6852 101.339 38.6852H108.841C109.313 38.6852 109.732 38.6065 110.178 38.5016ZM103.516 23.577C103.516 23.2885 103.752 23.0524 104.041 23.0524H107.739C109.208 23.0524 110.388 24.2065 110.388 25.6229C110.388 27.0655 109.208 28.2196 107.739 28.2196H104.041C103.752 28.2196 103.516 27.9836 103.516 27.695V23.577ZM103.516 31.3934C103.516 31.1049 103.752 30.8688 104.041 30.8688H108.841C110.309 30.8688 111.49 32.0229 111.49 33.4655C111.49 34.8819 110.309 36.036 108.841 36.036H104.041C103.752 36.036 103.516 35.8 103.516 35.5114V31.3934ZM120.851 34.8032H127.33C127.461 34.8032 127.566 34.8819 127.618 34.9869L129.166 38.5541C129.218 38.659 129.323 38.7377 129.454 38.7377H131.71C131.946 38.7377 132.103 38.5016 131.998 38.2918L124.47 20.9278C124.339 20.6655 123.998 20.6655 123.867 20.9278L116.13 38.2918C116.025 38.5016 116.182 38.7377 116.418 38.7377H118.674C118.805 38.7377 118.91 38.659 118.962 38.5541L120.562 34.9869C120.615 34.8819 120.72 34.8032 120.851 34.8032ZM124.418 27.6426L126.175 31.6557C126.254 31.8655 126.097 32.1016 125.861 32.1016H122.346C122.11 32.1016 121.952 31.8655 122.057 31.6557L123.841 27.6426C123.946 27.4065 124.313 27.4065 124.418 27.6426ZM144.5 26.7508C144.5 26.4623 144.657 26.4098 144.867 26.6196L149.011 31.1311C149.221 31.3672 149.536 31.3672 149.746 31.1311L153.89 26.6196C154.1 26.4098 154.257 26.4623 154.257 26.7508V38.1869C154.257 38.4754 154.493 38.7377 154.808 38.7377H156.434C156.723 38.7377 156.985 38.4754 156.985 38.1869C156.985 37.8983 156.985 20.1409 156.985 19.8262V19.8C156.985 19.5114 156.801 19.459 156.618 19.6688L156.329 19.9836C156.119 20.1934 155.805 20.5606 155.595 20.7705L149.746 27.1442C149.536 27.3541 149.221 27.3541 149.011 27.1442L143.162 20.7705C142.952 20.5606 142.637 20.1934 142.427 19.9836L142.139 19.6688C141.955 19.459 141.798 19.5114 141.798 19.8C141.798 20.0885 141.798 20.6131 141.798 20.9016V38.1869C141.798 38.4754 142.034 38.7377 142.323 38.7377H143.949C144.264 38.7377 144.5 38.4754 144.5 38.1869V26.7508ZM163.627 34.8032H170.106C170.237 34.8032 170.342 34.8819 170.395 34.9869L171.942 38.5541C171.995 38.659 172.1 38.7377 172.231 38.7377H174.486C174.723 38.7377 174.88 38.5016 174.775 38.2918L167.247 20.9278C167.116 20.6655 166.775 20.6655 166.644 20.9278L158.906 38.2918C158.801 38.5016 158.959 38.7377 159.195 38.7377H161.45C161.582 38.7377 161.686 38.659 161.739 38.5541L163.339 34.9869C163.391 34.8819 163.496 34.8032 163.627 34.8032ZM167.195 27.6426L168.952 31.6557C169.031 31.8655 168.873 32.1016 168.637 32.1016H165.123C164.886 32.1016 164.729 31.8655 164.834 31.6557L166.618 27.6426C166.723 27.4065 167.09 27.4065 167.195 27.6426ZM181.013 20.9016C181.013 20.6131 180.776 20.377 180.462 20.377H178.835C178.547 20.377 178.311 20.6131 178.311 20.9016V38.1869C178.311 38.4754 178.547 38.7377 178.835 38.7377H180.462C180.776 38.7377 181.013 38.4754 181.013 38.1869V20.9016ZM186.062 37.4C187.216 38.2655 188.606 38.7377 190.075 38.7377C190.311 38.7377 190.547 38.7377 190.757 38.7114C192.068 38.5803 193.275 38.1082 194.245 37.3213C194.534 37.0852 194.823 36.8229 195.085 36.5344C196.16 35.3016 196.659 33.7541 196.475 32.1803C196.055 28.4032 192.777 27.3803 190.809 26.7508C190.337 26.6196 189.918 26.4885 189.577 26.3311C187.662 25.4131 187.741 24.4164 188.003 23.6557C188.449 22.4754 189.813 22.1344 190.941 22.3967C190.967 22.3967 192.278 22.7901 192.593 23.9967C192.645 24.259 192.855 24.4426 193.144 24.4426L194.77 24.4164C195.085 24.3901 195.347 24.1016 195.295 23.7868C195.006 22.0557 193.747 20.9016 192.593 20.3246C192.252 20.1672 191.911 20.036 191.596 19.9573C190.259 19.6426 188.921 19.8 187.793 20.3246C186.718 20.8491 185.852 21.7147 185.432 22.8426C184.593 25.177 185.642 27.2754 188.344 28.5606C188.816 28.7705 189.367 28.9541 189.944 29.1377C192.121 29.8196 193.564 30.4229 193.8 32.4426C193.878 33.3606 193.59 34.2524 192.986 34.9606C192.357 35.6688 191.465 36.1147 190.468 36.2196C189.498 36.2983 188.527 36.036 187.741 35.459C187.111 34.9869 186.665 34.3311 186.482 33.6229C186.403 33.3606 186.167 33.177 185.905 33.2032L184.278 33.3606C183.964 33.3869 183.727 33.7016 183.806 34.0164C184.095 35.3278 184.855 36.4557 185.957 37.3213C185.983 37.3475 186.009 37.3737 186.062 37.4Z" fill="white"/>
</g>
<defs>
<filter id="filter0_d_514_3" x="0.721311" y="0" width="256.557" height="68.0328" filterUnits="userSpaceOnUse" color-interpolation-filters="sRGB">
<feFlood flood-opacity="0" result="BackgroundImageFix"/>
<feColorMatrix in="SourceAlpha" type="matrix" values="0 0 0 0 0 0 0 0 0 0 0 0 0 0 0 0 0 0 127 0" result="hardAlpha"/>
<feOffset dy="3.27869"/>
<feGaussianBlur stdDeviation="1.63934"/>
<feComposite in2="hardAlpha" operator="out"/>
<feColorMatrix type="matrix" values="0 0 0 0 0 0 0 0 0 0 0 0 0 0 0 0 0 0 0.25 0"/>
<feBlend mode="normal" in2="BackgroundImageFix" result="effect1_dropShadow_514_3"/>
<feBlend mode="normal" in="SourceGraphic" in2="effect1_dropShadow_514_3" result="shape"/>
</filter>
</defs>
</svg>
